<?xml version="1.0" encoding="utf-8"?>
<!-- Generator: Adobe Illustrator 22.0.1, SVG Export Plug-In . SVG Version: 6.00 Build 0)  -->
<svg version="1.1" id="圖層_1" xmlns="http://www.w3.org/2000/svg" xmlns:xlink="http://www.w3.org/1999/xlink" x="0px" y="0px"
	 viewBox="0 0 708.7 425.2" style="enable-background:new 0 0 708.7 425.2;" xml:space="preserve">
<style type="text/css">
	.st0{fill:none;stroke:#231815;stroke-miterlimit:10;}
</style>
<g>
	<path class="st0" d="M162.6,208.6c0.1-3.6,0.5-7.1,1.2-10.6c0.7-3.6,1.6-7.1,2.3-10.7c-1-4-3.6-7.5-7.6-9c-3.2-1.2-7-1.4-10,0.2
		c-3.2,1.6-5.1,4.8-4.5,8.5c0.4,2.6,1.7,4.9,3.1,7.1c1.6,2.8,3.2,5.7,4.6,8.7c0.7,1.5,1.3,2.9,1.9,4.4
		C156,209.3,159.9,210.2,162.6,208.6z"/>
	<path class="st0" d="M176,186.6c-0.3-0.8-0.5-1.7-0.6-2.5c0.5,3.8,2.3,7.3,4,10.8c-0.4-1-0.8-2-1.2-3.1
		C177.3,190.2,176.5,188.4,176,186.6z"/>
	<path class="st0" d="M551.7,254.7c-3.9-3.2-8.8-0.7-13.3-1.8c-2.1-0.5-4.1-1.5-6.1-2.4c-2.1-0.9-4.2-1.7-6.2-2.7
		c-3.7-1.8-7-4.1-9.2-7.6c-7.2,5.3-15.2,9.2-23.4,12.7c3.6,3,8.4,5.1,12.7,6.7c5.2,1.8,10.7,2.6,16.2,2.5c5.8-0.1,11.1-1.7,16.8-2.8
		c3.3-0.7,6.1-0.6,9.4-0.5c1.3,0.1,2.8,0.2,4-0.2C554.7,257.8,552.6,255.4,551.7,254.7z M527.4,255.4c-0.8,0.8-2.7,0.4-3.6,0.2
		c-4.4-1-7.9-4-11.6-6.7c-0.2,0.2-0.4,0.3-0.6,0c-0.3-0.3-0.4-0.6-0.5-0.8c-0.1-0.1-0.2-0.1-0.3-0.2c-0.2-0.1-0.1-0.4,0.1-0.3
		c-0.2-1.4,1.9-1.8,3.6-1.5c4.3,0.8,8.6,3.7,11.7,6.6C527,253.3,528.4,254.5,527.4,255.4z"/>
	<path class="st0" d="M527.2,243.3c-2.8-1.5-5.6-2.7-8-4.7c0,0,0-0.1-0.1-0.1c-0.2,0.2-0.4,0.3-0.6,0.5c-0.4,0.3-0.8,0.6-1.2,1
		c1.7,2.3,3.9,4.2,6.4,5.6c2.2,1.3,4.6,2.3,6.9,3.2c2.2,0.9,4.3,2,6.5,2.7c0.7,0.2,1.5,0.4,2.2,0.5c-2.4-0.9-4.7-3.1-6.3-4.4
		C531.1,246.1,529.4,244.4,527.2,243.3z"/>
	<path class="st0" d="M518.2,248.3c-1.2-0.6-2.6-1.2-3.9-1.4c-1-0.1-3.3-0.3-2.2,1.3c2.4,1.4,4.5,3.2,6.9,4.6
		c1.4,0.8,2.9,1.5,4.5,1.9c0.8,0.2,4.5,0.8,2.6-1C523.8,251.5,521.1,249.7,518.2,248.3z"/>
	<path class="st0" d="M181.2,194.5c1,1.6,2,3.2,3,4.8c0.3,0.6,0.7,1.1,1,1.7c-0.2-0.5-0.5-0.9-0.7-1.4
		C183.5,197.9,182.4,196.2,181.2,194.5z"/>
	<path class="st0" d="M174.8,182.9c-2.2,4.7-4.3,9.5-5.3,14.6c-1.2,5.9-1.3,12,0.8,17.7c1.6,4.3,4.2,8.2,5.8,12.5
		c0.6,1.5,1.4,3.7,1.3,5.6c3.7-0.9,5.2-4.9,5.9-8.3c0.7-3.6,0.9-7.5,0.7-11.2c0,0,0,0,0,0c0-0.1,0-0.2,0-0.2c0,0,0-0.1,0-0.1
		c-0.5-6.1-2.2-11.6-4.8-17.1C177.2,192.1,174.8,187.6,174.8,182.9z"/>
	<path class="st0" d="M182.9,241.8c1.4-2.5,2.6-5.1,3.5-7.8c-1,2.6-2.3,5.1-3.6,7.6C182.8,241.7,182.9,241.7,182.9,241.8z"/>
	<path class="st0" d="M180.2,195.3c0.5,1.2,1,2.5,1.6,3.7c2.2,4.7,4.8,9.3,5.8,14.4c0.7,3.6,1,7.4,0.8,11.1
		c0.4-4.7,0.1-9.5-1.2-13.9c-1.5-5.2-4.1-10-6.8-14.6C180.4,195.7,180.3,195.5,180.2,195.3z"/>
	<path class="st0" d="M224.7,164C224.6,164,224.6,164,224.7,164c0.7-0.3,1.4-0.6,2.1-0.9c8.5-3.7,19.9-6.4,28.8-2.7
		c0.8,0.3,1.5,0.7,2.2,1.2c-1.3-1.7-3.3-2.7-5.4-3.2c-0.5-0.1-1.1-0.2-1.6-0.3c-3.5-0.1-7.1,0.5-10.3,1
		C235,159.8,229.6,161.3,224.7,164z"/>
	<path class="st0" d="M241.2,169.1c0.3-1.5-0.5-2.2-1.7-2.4c0.4,0.3,0.8,0.7,1.1,1.2c0.4,0.8,0.5,1.6,0.3,2.3
		C241,169.8,241.2,169.5,241.2,169.1z"/>
	<path class="st0" d="M544.1,249.1c-0.5-1.3-1.7-2.3-2.9-3c-1.8-1.2-3.4-2.4-5-3.8c-3.7-3.3-7-6.6-11.9-7.9c-1.5,1.2-3,2.4-4.5,3.6
		c3.6,3.1,8.2,4.3,11.8,7.4c1.5,1.3,3,2.7,4.7,3.9c1.4,1,3.2,2.4,5,2.4C542.6,251.7,544.8,250.7,544.1,249.1z"/>
	<path class="st0" d="M220.1,178.3c0.3,0.9,0.9,1.5,1.6,2c0,0-0.1-0.1-0.1-0.1c-0.3-0.3-0.6-0.7-0.7-1.2c-0.6-2.9,2.7-6.2,4.7-7.8
		c1.9-1.5,4-3,6.3-4c-1.8,0.6-3.5,1.3-5.1,2.1c-1.1,0.7-2.1,1.5-3.1,2.4C222.1,173.2,219.3,175.9,220.1,178.3z"/>
	<path class="st0" d="M234.5,176.9c-1.7,1-3.5,1.8-4.6,2.3c-1.8,0.8-4.3,2.1-6.5,1.8c0.9,0.3,1.9,0.4,2.8,0.4
		c5.4,0.1,9.8-2.7,13.5-6.4c1.7-1.6,7.2-7.7,2.2-8.8c-0.4-0.1-0.9-0.2-1.3-0.2c0.8,0.3,1.5,0.9,1.6,2c0.3,3.4-3,6.1-5.6,7.7
		C235.9,176.2,235.2,176.5,234.5,176.9z"/>
	<path class="st0" d="M230.3,182.5c-3.3,0.9-8.2,2.1-10.7-0.9c-1.5-1.8-1.2-4.3-0.3-6.5c-1.3,2-2.6,5.2-1.1,7.4
		c2.7,3.9,9.7,2.4,13.5,1.1c5.5-1.9,11.1-5.4,14.1-10.4c1.1-1.8,3.8-6.3,1.8-8.3c-1.3-1.3-3.4-1.5-5.1-1.5c-2.7,0-5.5,0.4-8.1,1.2
		c0,0.1,0,0.2-0.1,0.2c-2.5,0.6-4.8,1.8-7,3.3c-0.9,0.6-1.7,1.1-2.6,1.7c0.6-0.4,1.3-0.7,1.9-1c2.6-1.7,5.5-3,8.4-3.8
		c2.7-0.7,8.8-1.9,10.3,1.6c1.4,3.2-1.7,6.9-3.7,9.1C238.6,178.8,234.6,181.3,230.3,182.5z"/>
	<path class="st0" d="M187.5,227.1c0.6-5.1,0.5-10.5-1-15.5c-0.9-3.3-2.4-6.3-3.8-9.4c0.8,2.3,1.4,4.6,1.8,7c1.9,3.6,2.8,7.5,3,11.6
		c0.1,2.7,0,5.3-0.5,7.9c-0.2,1.4-0.5,2.7-1,4c-0.3,0.9-0.7,1.7-0.8,2.6C186.3,232.7,187.1,230,187.5,227.1z"/>
	<path class="st0" d="M219.8,180.7c1.6,2.5,5,2.3,7.5,1.8c5-0.9,10-3.2,13.5-7c1.6-1.7,3.6-4,4.2-6.4c0.8-3.6-3.2-4.6-6.1-4.3
		c-2.6,0.3-5.3,1-7.9,2.1c1.7-0.5,3.3-0.9,4.7-1.2c2.1-0.4,8.3-1.3,8.8,2c0.4,2.6-1.9,5.3-3.6,7c-2.9,3-6.6,6.1-10.9,7
		c-2.8,0.6-7.5,0.8-9.6-1.6c-2.5-2.8,0-6.2,2.2-8.3c0.2-0.2,0.5-0.4,0.7-0.6c-0.6,0.4-1.1,0.8-1.6,1.2
		C219.9,174.6,218.2,178.1,219.8,180.7z"/>
	<path class="st0" d="M219.8,173.4c0.4-0.4,0.7-0.8,1.2-1.1c0.1-0.1,0.2-0.3,0.3-0.4C220.8,172.3,220.3,172.9,219.8,173.4z"/>
	<path class="st0" d="M146.9,273.1c-0.2,0-0.4,0.1-0.6,0.1c0,0.3,0.1,0.7,0.2,1c0.2-0.1,0.4-0.2,0.6-0.3
		C147.1,273.6,147,273.3,146.9,273.1z"/>
	<path class="st0" d="M150.8,278c0.8,0.3,1.6,0.4,2.5,0.4c0-0.1,0-0.2,0-0.3c-0.7-0.1-1.5-0.4-2.2-0.7
		C151,277.6,150.9,277.8,150.8,278z"/>
	<path class="st0" d="M157.5,270.3c-0.1-0.1-0.2-0.3-0.3-0.4c-0.2-0.2-0.3-0.3-0.5-0.5c0,0-0.1,0.1-0.1,0.1
		C156.9,269.8,157.2,270,157.5,270.3C157.5,270.3,157.5,270.3,157.5,270.3z"/>
	<path class="st0" d="M156.1,269.2c0-0.1,0.1-0.1,0.1-0.2c-0.1-0.1-0.2-0.2-0.4-0.3c-0.7-0.4-1.5-0.6-2.4-0.6
		c0.2,0.1,0.5,0.1,0.7,0.2C154.9,268.5,155.5,268.8,156.1,269.2z"/>
	<path class="st0" d="M148.3,276.5c0.6,0.5,1.3,1,2,1.3c0.1-0.2,0.2-0.5,0.4-0.7c-0.7-0.3-1.3-0.8-1.8-1.3
		C148.6,276.1,148.5,276.3,148.3,276.5z"/>
	<path class="st0" d="M147.5,274.2c-0.2,0.1-0.4,0.2-0.6,0.3c0,0.1,0.1,0.1,0.1,0.2c0.3,0.5,0.6,0.9,1,1.3c0.2-0.2,0.4-0.4,0.6-0.6
		C148.1,275.1,147.7,274.7,147.5,274.2z"/>
	<path class="st0" d="M146.7,271.9C146.7,271.9,146.7,271.9,146.7,271.9c-0.1,0-0.2,0-0.3,0c0,0,0,0.1-0.1,0.1c0,0.2,0,0.4,0,0.6
		c0.2,0,0.3,0,0.5,0C146.7,272.3,146.7,272.1,146.7,271.9z"/>
	<path class="st0" d="M157.6,273.1c0.1,0,0.1,0,0.2-0.1c-0.1-0.6-0.4-1.2-0.7-1.7c0,0,0,0,0,0c-0.2,0.2-0.5-0.2-0.3-0.4c0,0,0,0,0,0
		c-0.2-0.3-0.5-0.5-0.8-0.8c-0.1,0.1-0.3,0.3-0.4,0.4c-0.2,0.2-0.5-0.1-0.3-0.3c0.1-0.1,0.2-0.3,0.3-0.4c-0.7-0.5-1.5-0.8-2.3-1
		c0,0,0,0,0,0c0,0.3-0.4,0.3-0.4,0c0,0,0,0,0-0.1c-0.8-0.1-1.7-0.1-2.5,0.1c-0.1,0-0.1,0-0.2,0.1c0,0,0.1,0.1,0.1,0.1
		c0.3,0.3-0.2,0.8-0.4,0.4c-0.1-0.1-0.2-0.2-0.3-0.3c-0.4,0.1-0.7,0.3-1,0.5c0.2,0.1,0.4,0.1,0.6,0.2c0.4,0.2,0.2,0.8-0.2,0.6
		c-0.3-0.1-0.6-0.2-0.9-0.3c-0.1,0.3-0.2,0.6-0.2,0.8c0,0,0,0,0,0c0.5,0,0.5,0.7,0,0.7c0,0,0,0-0.1,0c0,0.2,0,0.4,0.1,0.6
		c0.2,0,0.2,0.3,0.1,0.4c0.2,0.7,0.7,1.3,1.2,1.9c0.1-0.1,0.2-0.2,0.2-0.3c0.2-0.2,0.6,0.1,0.4,0.4c-0.1,0.1-0.1,0.2-0.2,0.3
		c0.5,0.4,1,0.8,1.6,1.1c0.1-0.2,0.2-0.4,0.3-0.5c0.1-0.2,0.5-0.1,0.4,0.2c-0.1,0.2-0.2,0.4-0.3,0.6c0.6,0.3,1.3,0.5,1.9,0.7
		c0-0.4,0.1-0.7,0.1-1.1c0-0.3,0.5-0.3,0.5,0c0,0.4,0,0.8,0,1.2c0.3,0,0.5,0,0.8,0c0.1-0.2,0.4-0.2,0.5,0c0.4-0.1,0.8-0.2,1.1-0.4
		c0,0,0-0.1-0.1-0.1c-0.2-0.3,0.1-0.6,0.4-0.4c0,0,0.1,0.1,0.1,0.2c0.3-0.3,0.6-0.6,0.8-1c-0.1,0-0.1-0.1-0.2-0.1
		c-0.3-0.1-0.1-0.7,0.2-0.5c0,0,0.1,0,0.1,0.1c0.1-0.5,0.2-0.9,0.1-1.3c0,0-0.1,0-0.1,0C157.4,273.8,157.3,273.3,157.6,273.1z"/>
	<path class="st0" d="M217.7,184.9c1.2,1.1,2.6,1.6,4.2,1.8c1.7,0.1,3.4,0,5-0.2c1.5-0.2,3-0.5,4.4-0.9c6-1.7,11.6-5.2,16.1-9.1
		c0.6-0.6,1.2-1.2,1.7-1.9c2.6-3.1,7.1-9.7,0.9-11.8c-5-1.7-11.6-0.9-16.7,0.4c-4.2,1.1-8.4,2.9-12,5.5c-3.6,2.6-7.1,6.5-7.4,11.2
		c-0.1,3.1,1.6,5,4,6c-2.6-1.9-2.9-5.1-1.8-8.2c1.5-3.9,5.1-7.1,8.5-9.4c4-2.7,8.5-4.7,13.4-5.4c2.7-0.4,6.2-0.9,8.7,0.5
		c3.2,1.8,1.6,5.6,0.3,8.2c-2.3,4.4-6.2,8-10.6,10.3c-3.8,2-8.1,3.4-12.4,3.4c-3,0-7-1-7.2-4.7c-0.2-2.7,0.8-5,2.4-7
		c-0.7,0.9-1.4,1.8-1.9,2.8C216.2,179.1,215.3,182.6,217.7,184.9z"/>
	<path class="st0" d="M186.1,229.5c0.5-2.4,0.8-4.9,0.7-7.4c-0.1-4-0.8-7.8-2.1-11.5c0.1,1,0.2,2.1,0.3,3.2c1.1,3.7,2,7.4,1.6,11.3
		C186.5,226.5,186.3,228,186.1,229.5z"/>
	<path class="st0" d="M183,198.9c2.5,4.6,5,9.4,5.7,14.7c1.4,10.1-0.3,19.7-5.1,28.7c0.1,0,0.2,0,0.3,0c0-0.1,0-0.2,0.1-0.3
		c7.6-7.5,8.3-20,5.4-29.8c-1.5-5.3-4.2-9.9-7-14.5C182.5,198.1,182.8,198.5,183,198.9z"/>
	<path class="st0" d="M137.8,230.8c-4.2-9.7-7.7-19.9-8.9-30.5c-2.2-19.4,3.7-38,16.4-52.6c10.9-12.5,25.4-21.9,41.3-26.7
		c7.9-2.4,16.2-3.9,24.4-3.9c8.5,0,16.1,1.7,24.3,3.8c0.2,0,0.3,0.1,0.4,0.2c1.3-0.6,2.6-1.1,3.8-1.6c-11.2-1.9-22.5-4-33.9-3.5
		c-10.2,0.5-20.3,3-29.6,7.1c-16.2,7.1-30.7,18.7-39.9,34c-10.4,17.3-13.5,37.9-8.4,57.6c2.7,10.4,7,20.5,13.1,29.4
		c3.1,4.5,6.6,9.1,8.8,14.2C147.2,248.5,141.8,239.9,137.8,230.8z"/>
	<path class="st0" d="M180.1,148.8c-3.5,1.9-6.8,4-9.9,6.5c-2,1.6-4.7,3.9-5.1,6.6c-0.4,2.3,1,4.6,1.8,6.7c0.8,2,1.2,4,1.3,6.2
		c0.3,4.2-0.3,8.4-1.2,12.5c0,0.1,0,0.1,0.1,0.2c0.1,0.2,0,0.4-0.2,0.5c-1.2,5.7-2.8,11.3-3.3,17.1c-0.8,9.3,0.8,18.7,8,25.2
		c0.3,0.2-0.1,0.6-0.4,0.4c-3.3-2.7-5.4-5.9-6.8-9.5c0.1,1.8,0.4,3.6,0.8,5.3c0.8,3.1,2.1,7.2,5.1,8.9c1.4,0.8,4.1,1.4,5.3-0.2
		c1.1-1.4,0.7-3.5,0.3-5c-1.2-4.1-3.6-7.7-5.3-11.6c-2.1-4.8-3.3-9.9-2.9-15.2c0.7-10.5,5.5-19.6,10.1-28.9
		C181.6,167.1,186.3,156.2,180.1,148.8z"/>
	<path class="st0" d="M185.2,241.8c1.3-0.8,2.4-2.3,3.2-3.5c2.5-3.7,4.1-7.9,4.4-12.4c0.4-7.2-2-13.6-5.1-19.8
		c1.3,2.8,2.3,5.6,3,8.7C192.7,224.1,191.5,234.2,185.2,241.8z"/>
	<path class="st0" d="M477.9,140.2c0.2,0,0.4,0.2,0.4,0.4c2.7,0.3,5.4,1,7.9,2c1-1.3,1.6-2.9,2.7-4.2c1-1.2,2.2-2.1,3.6-2.7
		c3-1.4,6.2-1.8,9.4-2c3.1-0.1,6.9,0.2,9.6-1.7c0.7-0.5,1.5-1.2,2-2c0.8-1.4-0.5-1.6-1.6-1.3c-1.2,0.3-2.2,1-3.3,1.2
		c-2.7,0.7-5.1-1.4-7.7-2.1c-3.4-1-7.3,0.6-10.1,2.5c-4.7,3.1-8.4,7.5-13.5,9.8C477.5,140.2,477.7,140.2,477.9,140.2z"/>
	<path class="st0" d="M507.3,138.1c-2.4,0.6-4.8,1.6-7.1,2.6c-3,1.3-6.1,3.3-9.3,4.2c3.1,1.8,6.1,3.8,9.2,5.6
		c2-4.2,6.8-2.9,10.7-2.9c2.8-0.1,4.7-1.4,5-4.4c0.2-1.9,0-4.4-2-5.3C511.7,137.1,509.3,137.6,507.3,138.1z"/>
	<path class="st0" d="M471.5,138.8c6.8-1.6,13.5-15.6,4.3-18.3c-4-1.2-8.5-0.8-12.5,0c-2.7,0.5-5.2,1.3-7.8,2.2
		c-1.9,0.7-3.8,1.4-5.7,1.6c4.2,3.1,8.2,6.4,12.5,9.3C465.1,135.6,468.2,137.5,471.5,138.8z"/>
	<path class="st0" d="M515.2,163.9c2.2,2.6,4.3,5.2,6.8,7.5c3.2-2.4,8.3-1.2,12-1.7c2.1-0.3,4.2-0.7,6.2-1.4
		c1.8-0.6,4.5-1.7,5.1-3.8c1.6-6.2-7.2-2.4-9.7-1.7c-2.9,0.8-6.2,1-9.2,1.1c-1.8,0.1-3.7,0.2-5.5,0.1
		C518.9,163.8,517.1,163.6,515.2,163.9C515.2,163.9,515.2,163.9,515.2,163.9z"/>
	<path class="st0" d="M153.8,278.3c0.2,0,0.5-0.1,0.7-0.1c-0.2,0-0.4,0-0.7,0C153.8,278.2,153.8,278.2,153.8,278.3z"/>
	<path class="st0" d="M259.4,163.8c0.1,0.5,0.1,1,0,1.5c-0.3,2.1-1.6,4-2.8,5.7c-1.4,1.9-2.8,3.7-4.5,5.3c-0.4,0.4-0.9,0.9-1.4,1.3
		c2.1-1.5,4.3-3.2,6.2-5c0.2-0.3,0.4-0.6,0.6-0.9C258.9,169.6,260.7,166.2,259.4,163.8z"/>
	<path class="st0" d="M255,158.5c1.9,0.9,3.5,2.2,4.1,4.1c1.1,1.2,1.6,2.9,1,4.9c-0.3,1-0.7,1.9-1.2,2.8c3.4-4.1,4.3-8.3-2-11.1
		C256.3,158.9,255.6,158.7,255,158.5z"/>
	<path class="st0" d="M253.5,160.3c-0.2-0.1-0.4-0.1-0.6-0.1c-1.3-0.3-2.6-0.5-3.9-0.6c-1.6,0-3.2,0.1-4.3,0.2
		c-7.1,0.8-14.4,2.9-20.7,6.6c1.2-0.7,2.5-1.3,3.7-1.8c4.4-1.9,9.1-3,13.8-3.1c3.4-0.1,9.1-0.6,11.4,2.6c2,2.8,0,6.4-1.8,8.8
		c-0.1,0.2-0.2,0.3-0.4,0.5c2.3-2.3,4.5-5,5.3-7.9C256.8,162.6,255.5,161.1,253.5,160.3z"/>
	<path class="st0" d="M519,237.3c6.3-5.1,13-10.9,21.3-12.1c6.8-1,15.4,1.9,20.4-4.4c2.4-3,3.4-6.9,4.1-10.6c0.7-3.6,1.1-7.3,1-10.9
		c-0.1-3.7-0.5-7.9-2.6-11.1c-1.2-1.8-2.8-3.2-4.9-3.8c-2.7-0.8-5.4-0.5-8.2-0.6c-5.4-0.2-10.8-2-15.9-4c-4.1-1.6-8-3.2-11.3-6.1
		c-6.8-5.9-11.2-14.1-18.5-19.3c-4.1-2.9-8.5-5.5-12.8-8c-4.2-2.4-8.7-4.3-13.4-5.1c-0.1,0-0.1,0.1-0.2,0.1
		c-5.2-0.1-10.2-2.9-14.5-5.6c-4.6-3-8.9-6.5-13.4-9.8c-4.3-3.2-8.7-5.9-13.6-7.9c-5-2-10.1-3.8-15.3-5.3
		c-10.6-3.1-21.5-5.4-32.4-7.3c-23.5-4.1-47.5-7-71.3-5c-12.2,1-24.3,3.4-36.3,6.3c-11.5,2.8-22.8,6.3-33.9,10.5
		c-1.5,0.6-3,1.2-4.5,1.8c-0.1,0.4-0.5,0.9-1.1,0.8c-0.2,0-0.4-0.1-0.6-0.1c-1.7,0.7-3.5,1.4-5.2,2.2c-0.1,0.5-0.5,0.9-1.1,0.7
		c-0.1,0-0.2-0.1-0.4-0.1c-15.4,6.6-30.3,14.2-45.3,21.6c-2.9,1.4-5.9,2.9-8.8,4.5c5.5,5.8,3.3,14.6,0.6,21.2
		c-1.6,4-3.6,7.8-5.5,11.6c0.4,4.6,3.4,8.6,5.9,12.3c2.6,3.7,4.9,7.5,6.9,11.5c4.2,8.2,7.3,17.7,4.2,26.8c-1.2,3.6-3.2,7.7-6.2,10.2
		c-0.8,0.7-2.1,1.6-3.3,1.1c-0.8-0.3-1.7-0.9-1.5-1.9c0.1-0.7,0.4-1.3,0.8-1.9c0.6-1.1,1-2.3,1.4-3.6c0.6-2.4,1-4.9,1.5-7.4
		c0.6-3.6,0.4-7-0.2-10.4c-0.1,6-1,15.2-7.8,16.4c-0.1,0.5-0.3,0.9-0.7,1.3c-1.6,2-5,1.8-6.9,0.4c-4.5-3.3-6.2-10.6-6.1-16
		c0-0.3,0.2-0.5,0.5-0.5c-1-3.2-1.4-6.6-1.4-10.1c-2.7,1.3-6.3,0.5-8.7-1.3c1,2.6,1.8,5.3,2.4,8.1c1.2,5.5,1.4,11.2,2.6,16.7
		c2.4,11.2,6.9,21.7,10,32.8c1.4,5,2.6,10.3,5.5,14.7c3,4.5,7.3,7.1,12.4,8.8c2.4,0.8,4.8,1.4,7.1,2.4c2.1,0.8,4.1,1.9,6,3
		c4.3,2.3,8.9,4.9,13.9,5.2c0-0.3,0.2-0.6,0.6-0.5c18.4,3,37.1,3.5,55.7,2.1c6.2-10.9,8.1-23.9,10.1-36.1
		c1.7-10.5,3.7-20.9,4.8-31.4c1.1-11.3,1.6-22.7,1.2-34.1c-0.7-22.9-4.4-45.7-11.5-67.4c-0.1-0.3,0.3-0.4,0.4-0.1
		c5.4,15.4,8.8,31.5,10.6,47.7c2.4,22.4,1.9,45.2-1.5,67.5c-1.5,9.7-3.1,19.5-5,29.2c-1.7,8.4-3.8,17.1-7.9,24.7
		c4.5-0.4,9-0.8,13.5-1.4c12-1.5,24.1-3.4,36-5.7c5.8-1.1,11.6-2.4,17.3-3.8c5.7-1.4,11.3-3.1,17-4.2c23.2-4.8,47-5,70-10.8
		c11.4-2.9,22.5-6.6,33.6-10.4c11.1-3.8,22.2-7.8,33-12.4c0.1-0.1,0.3-0.1,0.4-0.2c0.1-0.2,0.4-0.4,0.6-0.3
		c4.9-2.2,9.8-4.4,14.6-6.9C511.5,243,515.3,240.3,519,237.3z M261.8,167.2c-1.2,2.6-3,4.7-5.1,6.6c-1.5,1.8-3.2,3.4-5,4.9
		c-5,4.1-10.9,7.5-17.1,9.6c-2.3,1.2-4.8,2.2-7.5,2.8c-2.1,0.5-5,0.7-7.8,0.6c-3.3,0.6-6.9,0.9-9.8-0.5c-3.7-1.8-5.1-5.9-3.9-9.7
		c1.6-5.1,5.3-9,9.7-12.2c3.1-2.9,6.5-5.4,10.3-7.4c7.5-3.9,17.2-6.5,25.7-4.5c2.3,0.1,4.5,0.5,6.5,1.6
		C260.9,160.7,263.5,163.5,261.8,167.2z M309.5,277.1c4.4-11.9,9.5-23.5,13.5-35.5c0.1-0.2,0.4-0.1,0.4,0.1
		c-4,12-8.6,23.8-13.3,35.5C309.9,277.6,309.3,277.4,309.5,277.1z M316.9,274.3c-0.2,0.4-0.7,0-0.5-0.3c4.7-10.2,9.2-20.6,12.5-31.3
		c0.1-0.2,0.4-0.1,0.3,0.1C325.8,253.5,321.4,263.9,316.9,274.3z M322.4,272.9c4-9.1,8.1-18.1,11.2-27.6c0.1-0.3,0.6-0.2,0.5,0.1
		c-3.1,9.5-6.9,18.8-11.1,27.7C322.8,273.6,322.3,273.3,322.4,272.9z M330.6,272.4c-0.1,0.4-0.7,0.2-0.6-0.2
		c2.4-8.4,5.6-16.6,7.9-25.1c0.1-0.3,0.6-0.2,0.5,0.1C336.1,255.8,333.3,264.1,330.6,272.4z M338.9,269.5c2-7,4.6-13.9,6.9-20.8
		c0.1-0.3,0.6-0.2,0.5,0.1c-2.3,6.9-4.6,13.8-6.8,20.8C339.4,270,338.7,269.9,338.9,269.5z M345.7,270c2.4-9,6.2-17.5,9.7-26.1
		c0.1-0.3,0.6-0.2,0.5,0.1c-3.5,8.6-7.2,17.1-9.6,26.1C346.2,270.6,345.6,270.4,345.7,270z M354.8,266.4c3.6-9.8,8.2-19.3,11.8-29.1
		c0.1-0.2,0.5-0.1,0.4,0.1c-3.5,9.9-8,19.3-11.6,29.2C355.3,267,354.7,266.8,354.8,266.4z M363.3,265.7c3.2-9.5,8.2-18.3,11.4-27.8
		c0-0.1,0.1,0,0.1,0c-2.9,9.6-7.4,18.6-11,28C363.7,266.1,363.1,266,363.3,265.7z M371.4,264.3c3.9-9,8.1-17.8,11.5-27
		c0.1-0.2,0.3-0.1,0.3,0.1c-3.3,9.2-7.5,18.1-11.3,27.2C371.8,265,371.2,264.7,371.4,264.3z M380,260.8c3.7-8,8.3-15.7,9.8-24.5
		c0-0.1,0.2-0.1,0.2,0.1c-1.2,8.9-5.9,16.7-9.5,24.7C380.4,261.5,379.8,261.1,380,260.8z M387.8,261.6c3.7-8.9,8.4-17.2,11.6-26.3
		c0.1-0.2,0.3-0.1,0.3,0.1c-3,9.1-7.4,17.8-11.3,26.5C388.2,262.2,387.7,261.9,387.8,261.6z M396.7,259.8
		c3.6-8.4,7.4-16.7,10.8-25.2c0.1-0.2,0.4-0.1,0.3,0.1c-3.2,8.6-7,17-10.5,25.4C397.1,260.4,396.5,260.2,396.7,259.8z M404.6,257.8
		c2.7-7.2,6.1-14.2,8.5-21.5c0.1-0.2,0.4-0.1,0.3,0.1c-2.3,7.4-5.3,14.6-8.3,21.7C405,258.4,404.5,258.1,404.6,257.8z M411.2,258.8
		c2.7-8,6.3-15.5,8-23.8c0-0.2,0.3-0.1,0.3,0.1c-1.4,8.3-5.1,15.9-7.7,23.9C411.6,259.4,411,259.2,411.2,258.8z M419.3,255.9
		c-0.1,0.3-0.6,0.2-0.5-0.1c2.1-6.4,4.6-12.6,6.7-19c0.1-0.2,0.3-0.1,0.3,0.1C423.8,243.3,421.7,249.7,419.3,255.9z M428.2,253.2
		c-0.1,0.4-0.7,0.2-0.6-0.2c1.8-5.1,3.9-10.2,5.5-15.4c0.1-0.2,0.4-0.1,0.3,0.1C432,242.9,430,248,428.2,253.2z M437.6,248.3
		c-0.1,0.3-0.6,0.2-0.5-0.1c1.4-4.9,3.1-9.7,3.9-14.7c0-0.2,0.3-0.1,0.2,0.1C440.5,238.6,438.9,243.4,437.6,248.3z M443.5,245.3
		c-0.1,0.4-0.7,0.2-0.6-0.2c0.8-3.9,2.3-7.5,3.2-11.4c0-0.2,0.4-0.1,0.3,0.1C445.6,237.7,444.3,241.4,443.5,245.3z M449.7,241
		c-0.1,0.3-0.5,0.2-0.5-0.1c0.5-2.6,1.1-5.2,1.6-7.8c0-0.2,0.3-0.1,0.2,0.1C450.7,235.7,450.3,238.3,449.7,241z M456,237.6
		c-0.1,0.2-0.4,0.1-0.3-0.1c0.2-1,0.5-2,0.8-3c0.1-0.2,0.4-0.1,0.3,0.1C456.5,235.6,456.3,236.6,456,237.6z M464.7,235.4
		c-0.1,0.3-0.5,0.1-0.4-0.1c0.5-1.7,0.8-3.5,0.8-5.3c0-0.2,0.3-0.2,0.3,0C465.4,231.8,465.2,233.6,464.7,235.4z M472.3,230.3
		c-0.1,0.3-0.5,0.2-0.4-0.1c0.2-1,0.3-2,0.6-3c0.1-0.2,0.4-0.1,0.3,0.1C472.5,228.2,472.5,229.3,472.3,230.3z M475.9,228.4
		c-1.2,0-0.7-1.6-0.4-2.3c0.1-0.2,0.4,0,0.3,0.2c-0.2,0.4-0.7,1.7,0.1,1.8C476.1,228,476.1,228.4,475.9,228.4z M481.5,225.3
		c-0.4,0-0.7-0.3-0.7-0.7c0-0.3,0.4-0.2,0.4,0c0,0.2,0.2,0.3,0.4,0.3C481.7,225,481.7,225.4,481.5,225.3z M484.3,224.4
		c0-0.3,0-0.7,0-1c0-0.2,0.3-0.2,0.3,0c0,0.3,0,0.7,0,1C484.7,224.6,484.3,224.6,484.3,224.4z"/>
	<path class="st0" d="M604.9,176.4c-0.3-0.1-0.4-0.4-0.3-0.7c0.8-1,1.9-1.7,2.9-2.5c1.4-1,3.6-2.3,4.1-4.1c0.8-3.1-2.4-0.7-3.3,0.1
		c-0.9,0.8-1.7,1.8-2.6,2.5c-4.2,3.1-9.1,4.9-13.7,7.4c-4.6,2.6-8.8,5.8-13.6,8.1c-1.8,0.9-3.7,1.7-5.6,2.4c-1.3,0.5-2.9,1-4.3,0.5
		c-3.1-1.1-2.3-4.9-1.3-7.2c0.7-1.6,1.7-3.1,2.2-4.8c0.3-1.2,0.6-3,1.7-3.7c1.3-0.9,2.7-0.4,3.8,0.4c1.2,0.8,4.7,2.2,5.3-0.2
		c0.6-2.6-1.7-5-1.5-7.6c0.1-1.6,1.3-3.1,2.3-4.2c1.3-1.6,2.8-3,4-4.7c3.4-4.3,6.6-8.7,10.8-12.3c3.7-3.2,7.7-6,12.1-8.2
		c-5.1-0.2-9.3,3.7-13.3,6.6c-5.1,3.7-10.3,7.3-15.3,11.1c-4.9,3.7-10,7.5-13.8,12.4c-3.6,4.6-6.3,9.8-8.2,15.2
		c1.3,0.3,2.6,0.8,3.8,1.6c5.6,4.1,5.9,12.4,5.5,18.7c-0.4,6.2-1.3,14.3-5.9,18.9c-2,2-4.6,3.2-7.4,3.6c-1.2,0.2-2.5,0.2-3.7,0.2
		c2,4.4,5,8.5,7.9,12.3c3.1,4.1,7.1,7.3,10.3,11.3c1.6,2,3.2,3.8,5.3,5.3c1.7,1.2,3.5,2.4,5.3,3.6c0.8,0.6,1.6,1.2,2.4,1.9
		c0.7,0.6,1.5,1.5,2.3,1.9c1.1,0.5,1.8-2.6,1.7-3.4c-0.1-1.2-0.9-1.9-1.8-2.5c-6.3-4-12.3-8-17.1-13.7c-1.8-2.2-3.7-4.4-5.2-6.8
		c-0.9-1.3-2.5-3.5-2.2-5.2c0.4-1.7,2.4-1.2,3.4-0.4c2.6,1.9,4.5,4.7,6.4,7.3c5.7,7.8,14.1,12.5,21.1,18.9c2,1.8,4.2,3.6,6.9,4.3
		c1.5,0.4,6.2,0.3,4.5-2.5c-2.3-3.8-7.9-4.1-11.2-6.9c-2.1-1.8-3.9-4-5.8-6c-1.8-2-3.8-3.7-5.9-5.3c-4.1-3.4-8.3-6.4-12.7-9.5
		c-2.4-1.7-4.4-4.8-2.4-7.7c1.5-2.1,4.8,1.6,5.9,2.6c1.7,1.5,3.7,2.5,5.5,3.9c1.8,1.5,3,3.4,4.1,5.4c2.6,4.7,7.2,8.3,12.5,9.5
		c2.4,0.6,5.6,1,7.7-0.6c1.8-1.3,2.6-3.7,1.2-5.6c-3.1-4.2-9.3-4.2-13.5-6.6c-4.3-2.5-8.2-5.8-12.6-8.1c-2.5-1.3-6.9-2.9-6.9-6.4
		c0-2.4,3.3-3.8,5.3-3.4c1.8,0.3,3.6,1.1,5.4,1.7c5.7,2.1,11.3,4.4,17.2,5.9c2.4,0.6,5,1.3,7.4,1c2.1-0.2,3.9-1.9,2.4-4.2
		c-1.8-2.7-6.2-2.9-9.1-3.1c-4.6-0.4-9-1.5-13.4-2.7c-2.9-0.8-5.9-1.6-8.8-2.4c-1.4-0.3-3.4-0.5-4.5-1.6c-1.8-1.9-1.1-5.1,1.5-5.7
		c3.9-0.9,8.7,0.4,12.6,0.9c3.2,0.4,30,4.3,27.3-3.2c-1.3-3.6-7-3.5-10.1-3.4c-5.5,0.2-10.9,1.2-16.4,2c-2.8,0.4-5.5,0.6-8.3,0.8
		c-1.7,0.1-3.5,0.3-5.2-0.2c-3.3-1-2.3-5.5,0.2-6.7c0.1-0.1,0.2-0.1,0.3,0c9-6.1,20-7.7,29.4-13.1c1.7-1,3.6-1.9,5.6-1.8
		c1.7,0.1,4.9,0.8,6.2-0.6c0.6-0.7-3.3-0.7-3.8-0.7C606.9,176.5,605.8,176.6,604.9,176.4z"/>
	<path class="st0" d="M211.2,185c-2.6-7.8,4.8-14.2,10.6-17.9c4.1-2.6,8.5-4.8,13.2-6.1c1.4-0.4,2.8-0.8,4.3-1.1
		c-6.5,1-12.8,3.5-18.3,6.7c-1.3,0.7-2.6,1.5-3.8,2.3c-1.8,1.5-3.5,3.2-4.9,5c-3,4.1-5.8,11.5-0.4,15c0.2,0.1,0.4,0.2,0.6,0.4
		c0.2,0.1,0.4,0.2,0.6,0.3c0.9,0.4,1.9,0.7,2.8,0.9c1.5,0.3,3.1,0.4,4.7,0.4c0.5-0.1,1-0.2,1.5-0.4
		C217.6,190.6,212.7,189.6,211.2,185z"/>
	<path class="st0" d="M240.6,183.5c0.8-0.6,1.6-1.2,2.3-1.8c0.3-0.2,0.7,0.1,0.4,0.4c0.3-0.2,0.6-0.3,0.8-0.5
		c0.6-0.3,1.3-0.8,2.1-1.3c3.7-2.8,7-6,9.7-9.7c1.5-2.1,3.6-5.2,2.5-7.8c-0.8-0.7-1.7-1.3-2.6-1.7c0.7,0.7,1.1,1.6,1,2.8
		c-0.3,3.1-2.3,5.8-4.3,8.1c-2,2.4-4.4,4.6-6.9,6.6c-1.2,1.1-2.6,2-3.9,2.9c-1.2,0.7-2.4,1.4-3.6,2c-3.3,1.7-6.8,2.9-10.4,3.5
		c-0.4,0.1-0.9,0.1-1.3,0.2c-1.7,0.3-3.5,0.4-5.2,0.1c-4-0.4-7.8-1.9-7.8-6.4c0-4.4,2.3-8,5.5-10.9c-0.8,0.6-1.6,1.2-2.3,1.9
		c-3.2,3.1-6.2,7.4-5,12.1c1.1,4,4.7,5.7,8.5,6c1.4,0.1,2.8,0.1,4.1,0c1.1-0.3,2.3-0.7,3.4-1.1C232,187.3,236.4,185.6,240.6,183.5z"
		/>
	<path class="st0" d="M213.1,190.3c-3.2-1.3-5.4-3.7-5.3-7.7c0.1-3.5,1.8-6.8,4-9.5c-1.2,1.2-2.4,2.5-3.3,3.9
		c-1.5,2.2-2.9,5-2.6,7.8c0.3,3,2.3,5.5,5.3,6.3c2,0.5,4.1,0.6,6.2,0.4c-0.3,0-0.6-0.1-1-0.2C215.2,191.1,214.1,190.8,213.1,190.3z"
		/>
	<path class="st0" d="M247.2,180.5c-3,2.4-6.3,4.5-9.7,6.2c2.8-1.2,5.4-2.5,7.8-4c3-1.9,6.1-4.1,8.6-6.7c-0.4,0.3-0.9,0.6-1.3,1
		C250.9,178.2,249.1,179.3,247.2,180.5z"/>
	<path class="st0" d="M244.3,157.7c0.9-0.1,1.9-0.2,2.8-0.3c-8.2-0.5-16.6,2-23.6,6.3c1.8-1,3.7-1.8,5.5-2.5
		C234,159.3,239.1,158.2,244.3,157.7z"/>
	<path class="st0" d="M227.1,189.7c0.8-0.1,1.7-0.3,2.5-0.5c1.9-0.6,3.8-1.3,5.6-2.1c0.8-0.5,1.6-0.9,2.4-1.5
		C234.2,187.2,230.7,188.6,227.1,189.7z"/>
</g>
</svg>
