<?xml version="1.0" encoding="utf-8"?>
<!-- Generator: Adobe Illustrator 22.0.1, SVG Export Plug-In . SVG Version: 6.00 Build 0)  -->
<svg version="1.1" id="圖層_1" xmlns="http://www.w3.org/2000/svg" xmlns:xlink="http://www.w3.org/1999/xlink" x="0px" y="0px"
	 viewBox="0 0 163.3 183.5" style="enable-background:new 0 0 163.3 183.5;" xml:space="preserve">
<style type="text/css">
	.st0{fill:#CCCCCC;}
	.st1{fill:#3BB5EA;}
	.st2{fill:#70B279;}
	.st3{fill:#F5B19B;}
	.st4{fill:#C1272D;}
	.st5{fill:#CE424D;}
	.st6{fill:none;stroke:#000000;stroke-miterlimit:10;}
	.st7{stroke:#000000;stroke-miterlimit:10;}
</style>
<path class="st4" d="M91.2,127.1c0,1.2-1,2.2-2.2,2.2s-2.2-1-2.2-2.2c0-1.2,1-2.2,2.2-2.2S91.2,125.9,91.2,127.1z"/>
<path class="st4" d="M123.1,118.7c0,1.2-1,2.2-2.2,2.2c-1.2,0-2.2-1-2.2-2.2c0-1.2,1-2.2,2.2-2.2
	C122.1,116.5,123.1,117.5,123.1,118.7z"/>
<path class="st5" d="M160,124.9c-1.1-1.7-2.8-4.1-5.1-5.9c-0.2-0.2-0.3-0.5-0.5-0.7c-2.7-3.6-6.2-5.4-8.7-6.3c-2-0.8-4-1.2-5.9-1.2
	c-0.4,0-0.7,0-1.1,0c0.5-0.6,0.9-1.2,1.2-1.8c1.7-1.1,3.3-2.6,4.6-4.6c1.2-1.9,2.8-4.9,2.9-8.6c0-0.2,0-0.4,0-0.6
	c0.7-2.3,0.8-4.7,0.7-6.3c-0.2-2.6-2.4-11.7-7.8-11.7c-0.4,0-0.8,0.1-1.1,0.1c-2.1,0.5-3.1,2-3.6,4.3c-0.4-0.9-0.9-1.8-1.3-2.7
	c1.9-2.3,3.8-5.3,4.6-9c1.3-1.3,2.5-2.9,3.6-4.6c3.2-1.8,22.1-13.3,19.9-31.9C159.6,10,140.4,0,133.3,0c-0.8,0-1.5,0.1-2.1,0.3
	c-0.1,0-0.2,0-0.3,0.1c-1.7,0.3-5.3,1-7,4.1c-0.6,1-1.3,3.2-0.1,6c0.1,0.2,0.2,0.5,0.4,0.7c-0.2,0-0.5-0.1-0.7-0.1
	c-1.5,0-3.8,0.5-5.8,3c-3.6,4.3-8.3,15.3-3.8,29.7c2.6,8.3,7.8,13.4,12.6,16.5c-0.2,0.5-0.3,1-0.5,1.4c-1.4,1-2.8,2-4.1,3.1
	c-5.2-3.8-11.3-6.5-17.7-7.8c-0.3-6.1-0.2-11.1-0.1-14.6c0.2-5.5,0.2-7.7-2-9.4c-0.8-0.6-1.7-0.9-2.7-0.9c-0.9,0-2.6,0.3-4.1,2.2
	c-1.8,2.4-4.3,10.3-4.5,22.2c-2.4,0.3-4.7,0.8-7.1,1.5c-2.1,0.6-4.1,1.4-6,2.3c-0.8-1.3-1.7-2.4-2.4-3.5
	c-1.6-2.2-10.1-13.3-15.5-13.3c-2,0-3.7,1.2-4.4,3c-1,2.6,0.3,4.5,3.4,9c1.9,2.8,4.8,6.9,7.8,12.2c-5,4.6-8.9,10.4-11.3,16.7
	c-1.7-0.2-3.3-0.4-5.1-0.4c-0.4-0.3-0.8-0.7-1.2-1c2.4-5.2,4-12.3,1.7-20.7c-4-14.6-14.1-21.2-19.3-22.9c-0.9-0.3-1.9-0.4-2.8-0.4
	c-1.7,0-3.2,0.5-4.4,1.5c0-0.3,0-0.5-0.1-0.8C23.6,36.3,21,34,17.6,34c-2,0-3.7,0.7-4.8,1.2c-0.1,0-0.2,0.1-0.3,0.1
	c-4.9,1.5-8.3,8.6-9.3,10.8c-2.2,5-6.5,18.5,1.1,34.2c7.1,14.5,24.3,16.1,31.4,16.1c1.2,0,2.1,0,2.6-0.1c1.8,0.9,3.7,1.5,5.5,1.9
	c2.7,2.6,5.9,4.1,8.8,5c0.1,1.6,0.3,3.2,0.6,4.8c-2-2.3-3.3-2.3-4.3-2.3c-0.5,0-1,0.1-1.4,0.2c-1.3,0.5-2.4,1.5-2.9,2.8
	c-1,2.7-0.2,8.3,1.7,11.7c0.8,1.4,2.1,3.4,4,5c0.1,0.2,0.2,0.3,0.3,0.5c2.2,3,5.1,4.7,7.1,5.6c2,0.9,4.1,1.3,6,1.3
	c0.1,0,0.3,0,0.4,0c0.6,0.3,1.3,0.6,2,0.9c-1.9,1-3.7,2.6-5.3,4.7c-1.5,2.1-3.5,5.5-3.8,10c0,0.3,0,0.6,0,0.8
	c-1,2.8-1.2,5.7-1.1,7.7c0.1,3.1,2.3,14.5,8.2,14.5c0.2,0,0.4,0,0.6,0c4.1-0.6,4.5-5.2,4.7-7.9c0.1-2,0.2-4.5,0.1-5.9l0-0.7
	c0-1.2-0.1-2.4-0.1-3.7c0.9-1.1,1.7-2.2,2.5-3.2l0.9-1.3c0.2-0.3,0.5-0.7,0.7-1c-0.7,1.7-1.3,3.7-1.3,6.1c0,0.2,0,0.4,0,0.6
	c-0.6,2.3-0.5,4.5-0.4,6.1c0,0.1,1.6,11.5,7.6,11.5c0.4,0,0.7,0,1.1-0.1c4.1-1,4.1-5.7,3.6-11.8l0-0.5c-0.1-0.8-0.2-1.7-0.3-2.6
	c0.6-0.8,1.1-1.7,1.5-2.5l0.6-1.1c0.4-0.7,0.8-1.4,1.2-2.1c0.9-0.3,1.8-0.7,2.6-1l0.8-0.4c1.9,3,4.6,5.4,7.8,6.9
	c0.3,0.5,0.6,1.1,0.9,1.6c-5.2,4.9-7.2,11.3-5.2,18.2c0.9,3.1,3.8,6.7,12.6,6.7c10.7,0,27.3-5.6,32.6-12.7c2.4-3.2,2.2-6,1.7-7.9
	c-2-6.8-7.1-11.2-14.2-12.5c0-1.2-0.1-2.5-0.5-3.7c1.2-2.8,1.8-5.8,1.6-8.9l0.1,0c0.9-0.1,1.8-0.3,2.8-0.6c0.7,0.4,1.4,0.8,2.1,1.1
	l1.1,0.5c0.8,0.4,1.7,0.9,2.6,1.3c0.4,0.8,0.8,1.6,1.2,2.3l0.2,0.4c4.1,7.6,5.9,8.2,7.9,8.2c0.5,0,1-0.1,1.4-0.2
	c1.3-0.4,2.3-1.4,2.8-2.7c1.1-2.7,0-8.3-1.7-11.6c-0.7-1.4-2-3.3-3.7-4.9c-0.1-0.2-0.2-0.3-0.3-0.5c-1.3-2-2.9-3.4-4.4-4.5
	c0.4,0.2,0.8,0.3,1.2,0.5l1.5,0.6c1.2,0.5,2.5,0.9,3.8,1.3c0.6,1.1,1.3,2.2,1.9,3.2l0.4,0.6c5.8,9.4,8,9.4,9.6,9.4c0,0,0,0,0,0
	c0.7,0,1.3-0.1,2-0.4c1.2-0.6,2.1-1.7,2.5-3C163.9,135.8,162.4,128.9,160,124.9z M124.1,134.8c-3.6,3.7-8,6.5-13,8.2
	c0-0.2,0.1-0.3,0.1-0.5c0-1.2-1-2.2-2.2-2.2c-1.2,0-2.2,1-2.2,2.2c0,0.6,0.2,1.1,0.6,1.5c-0.9,0.2-1.8,0.3-2.8,0.4
	c-0.9,0.1-1.9,0.2-2.8,0.2c-0.3,0-0.5,0-0.8,0c-0.6,0-1.2,0-1.7,0c-0.6,0-1.2-0.1-1.7-0.1c-0.6-0.1-1.3-0.2-1.9-0.3
	c-0.2,0-0.3,0-0.5-0.1c0,0-0.1,0-0.1,0c-0.1,0-0.2,0-0.3-0.1c-0.3-0.1-0.7-0.1-1-0.2c-0.2,0-0.4-0.1-0.6-0.2c-2.1-0.5-4.1-1.2-6-2.1
	c0.4-0.4,0.7-1,0.7-1.6c0-0.5-0.2-1-0.4-1.3c-0.4-0.5-1.1-0.9-1.8-0.9c-1.1,0-2,0.8-2.2,1.9c-0.4-0.3-0.9-0.5-1.3-0.8
	c-2.5-1.7-4.8-3.8-6.9-6.1c1-0.2,1.7-1.1,1.7-2.1v-0.1c0-1-0.8-1.9-1.8-2.1c0,0,0,0,0,0c-0.1,0-0.3,0-0.4,0c-0.6,0-1.2,0.3-1.6,0.7
	c0,0-0.1,0-0.1,0c-0.2,0-0.4,0.1-0.6,0.1c-1.4-2-2.6-4.3-3.6-6.6c-0.6-1.3-1.1-2.7-1.5-4.1c-0.1-0.4-0.2-0.8-0.3-1.3
	c2.6,0.9,5.8,1.3,9.3,1.4c-0.4,0.4-0.6,0.9-0.6,1.5c0,0.5,0.2,0.9,0.4,1.3c0.4,0.6,1.1,0.9,1.8,0.9c0.3,0,0.6-0.1,0.9-0.2
	c0.8-0.4,1.3-1.1,1.3-2c0-0.6-0.2-1.1-0.6-1.5c4.9-0.2,10.3-0.9,15.7-2.2c0.3,0.9,1.1,1.5,2.1,1.5c1.2,0,2.2-1,2.2-2.2
	c0-0.1,0-0.2,0-0.3c4-1.1,8-2.5,11.8-4c0.4,0.7,1.1,1.2,2,1.2c1.2,0,2.2-1,2.2-2.2c0-0.3,0-0.5-0.1-0.8c3.5-1.6,6.7-3.4,9.5-5.4
	c0,0,0,0.1,0,0.1c0,0.5,0.2,0.9,0.4,1.3c0.4,0.6,1.1,0.9,1.8,0.9c1.2,0,2.2-1,2.2-2.2c0-0.2,0-0.4-0.1-0.6c-0.2-0.8-0.8-1.4-1.6-1.5
	c1.7-1.3,3.1-2.7,4.2-4.1c0.2,0.4,0.3,0.8,0.5,1.2c0.3,1,0.5,2,0.7,2.9c0.5,2.4,0.8,4.9,0.8,7.3c0,1.2,0,2.5-0.1,3.7
	c0,0-0.1,0-0.1,0c-0.3-0.2-0.7-0.3-1.1-0.3c-0.4,0-0.9,0.1-1.2,0.4c-0.6,0.4-1,1.1-1,1.9c0,1.2,1,2.2,2.2,2.2c0.2,0,0.4,0,0.6-0.1
	c-0.4,1.9-0.9,3.8-1.6,5.7c-0.5,1.2-1,2.4-1.6,3.6c-0.3,0.6-0.6,1.1-0.9,1.7c-0.3-0.9-1.1-1.5-2.1-1.5c-1.2,0-2.2,1-2.2,2.2
	c0,1.2,1,2.2,2.2,2.2c0.1,0,0.2,0,0.3,0c-0.5,0.8-1.1,1.5-1.7,2.2C125.2,133.7,124.6,134.2,124.1,134.8z"/>
<path class="st6" d="M111.1,142.5c0,0.2,0,0.3-0.1,0.5c-0.3,0.1-0.7,0.2-1,0.3c-0.5,0.1-0.9,0.3-1.4,0.4c-0.5,0.1-0.9,0.2-1.4,0.3
	c-0.4-0.4-0.6-0.9-0.6-1.5c0-1.2,1-2.2,2.2-2.2C110.1,140.3,111.1,141.3,111.1,142.5z"/>
<path class="st6" d="M73.2,128.9c-0.2,0.2-0.3,0.4-0.4,0.6c-0.1-0.2-0.2-0.3-0.3-0.5c0.2,0,0.4-0.1,0.6-0.1
	C73.1,128.9,73.1,128.9,73.2,128.9z"/>
<path class="st6" d="M74.6,131.8c-0.1-0.1-0.2-0.2-0.2-0.3h0C74.4,131.6,74.5,131.7,74.6,131.8z"/>
<path class="st6" d="M111.1,142.5c0,0.2,0,0.3-0.1,0.5c-0.3,0.1-0.7,0.2-1,0.3c-0.5,0.1-0.9,0.3-1.4,0.4c-0.5,0.1-0.9,0.2-1.4,0.3
	c-0.4-0.4-0.6-0.9-0.6-1.5c0-1.2,1-2.2,2.2-2.2C110.1,140.3,111.1,141.3,111.1,142.5z"/>
<path class="st5" d="M100,86.8l-42,20l7,18l10,13l12,8c0,0,19,3,20,3s16-9,16-9l8-8l6-13v-15l-2-14L100,86.8z"/>
</svg>
