<?xml version="1.0" encoding="utf-8"?>
<!-- Generator: Adobe Illustrator 22.0.1, SVG Export Plug-In . SVG Version: 6.00 Build 0)  -->
<svg version="1.1" id="圖層_1" xmlns="http://www.w3.org/2000/svg" xmlns:xlink="http://www.w3.org/1999/xlink" x="0px" y="0px"
	 viewBox="0 0 142.7 108" style="enable-background:new 0 0 142.7 108;" xml:space="preserve">
<style type="text/css">
	.st0{fill:#CCCCCC;}
	.st1{fill:#3BB5EA;}
	.st2{fill:#70B279;}
	.st3{fill:#F5B19B;}
	.st4{fill:#C1272D;}
	.st5{fill:#CE424D;}
	.st6{fill:none;stroke:#000000;stroke-miterlimit:10;}
	.st7{stroke:#000000;stroke-miterlimit:10;}
</style>
<g>
	<path class="st6" d="M117.2,15.1c-0.7,0.2-1.4-0.3-1.5-1c-0.1-0.7,0.3-1.4,1-1.5c0.7-0.1,1.4,0.3,1.5,1
		C118.3,14.3,117.9,15,117.2,15.1z"/>
	<path class="st6" d="M117.2,15.1c-0.7,0.2-1.4-0.3-1.5-1c-0.1-0.7,0.3-1.4,1-1.5c0.7-0.1,1.4,0.3,1.5,1
		C118.3,14.3,117.9,15,117.2,15.1z"/>
	<path class="st6" d="M78.4,81.8c0,0.2-0.1,0.3-0.2,0.5c-2.2-0.2-4.4,0.7-5.8,2.5c-1.8,2.3-1.8,5.3-0.4,7.6c-0.7,0.4-1.4,1-2,1.7
		c-1.2,1.5-1.5,3.3-1.1,5c-2.4,0-4.7-0.6-6.3-1.8c0,0,0,0,0,0c0,0,0,0,0,0c0,0,0,0,0,0c-2.6-2.1-3.1-5.9-1-8.5
		c0.5-0.7,1.2-1.3,2-1.7c-1.3-2-1.4-4.5-0.3-6.6h0c3.2-0.6,6.7-1.3,10.2-2.1h0c1-0.2,2.1-0.5,3.1-0.8c0,0.2,0,0.4,0.1,0.5
		C76.8,79.4,77.4,80.7,78.4,81.8z"/>
	<path class="st6" d="M78.7,76.9c-0.6,0.5-1.4,0.9-2.1,1.1c-1,0.3-2.1,0.4-3.1,0.2c1-0.2,2.1-0.5,3.1-0.8
		C77.3,77.3,78,77.2,78.7,76.9z"/>
	<path class="st6" d="M26.4,81.3c-0.1,0.2-0.2,0.3-0.3,0.4c-0.7,1-1.5,1.9-2.3,2.8c-1.9-1-4.3-1.1-6.3,0c-2.5,1.4-3.8,4.1-3.4,6.8
		c-0.8,0-1.7,0.3-2.5,0.7c-1.5,0.8-2.5,2.1-3,3.6c-2.4-1-4.5-2.5-5.6-4.5l0,0c0,0,0,0,0,0c-1.6-3-0.5-6.6,2.5-8.2
		c1.5-0.8,3.2-0.9,4.8-0.4c1.6-1.4,3.3-2.9,5-4.6c2.6,1.3,5.8,2.3,9.4,3.1C25.2,81,25.8,81.2,26.4,81.3z"/>
	<path class="st6" d="M30.4,81.8c-1.4,0.5-2.9,0.4-4.3-0.1c-0.5-0.2-1-0.4-1.5-0.8c0.6,0.1,1.2,0.2,1.8,0.3
		C27.7,81.5,29,81.7,30.4,81.8z"/>
	<path class="st6" d="M90.2,100.4c-2.8,3.1-13.9,6.1-18.9,2.3c0,0-0.1,0-0.1-0.1c-1.2-0.9-1.9-2.2-2.2-3.5c-0.4-1.7,0-3.6,1.1-5
		c0.5-0.7,1.2-1.3,2-1.7c-1.4-2.3-1.4-5.3,0.4-7.6c1.4-1.8,3.6-2.7,5.8-2.5c0-0.2,0.1-0.3,0.2-0.5c-1-1-1.6-2.3-1.8-3.7
		c0-0.2-0.1-0.3-0.1-0.5c0.7-0.2,1.4-0.4,2.2-0.6c2.8-0.8,5.5-1.7,8.1-2.7c3-1.2,5.8-2.5,8.1-4C97.1,83.5,91.7,98.7,90.2,100.4z"/>
	<path class="st6" d="M43.2,82.4c-3.9,12.1-13.9,22.6-15.9,23.5c-3.8,1.7-15.2-0.1-18.2-5.7c0,0,0,0,0,0c0,0,0,0,0,0
		c-0.8-1.5-0.9-3.1-0.5-4.6c0.4-1.5,1.5-2.9,3-3.6c0.8-0.4,1.6-0.7,2.5-0.7c-0.4-2.7,0.9-5.5,3.4-6.8c2.1-1.1,4.4-1,6.3,0
		c0.8-0.9,1.6-1.8,2.3-2.8c0.1-0.1,0.2-0.3,0.3-0.4c1.3,0.2,2.6,0.4,4,0.6c0.9,0.1,1.9,0.2,2.8,0.3C36.5,82.4,39.9,82.5,43.2,82.4z"
		/>
	<path class="st6" d="M139.9,22.3C138.6,16,131.3,8.8,125,5.8c-6.5-3.1-12.1-4.6-18.4-3.3c-12.4,2.6-20.4,15-17.7,27.6
		c0.1,0.7,0.3,1.4,0.5,2c-3.3-2.2-7.3-3.6-11.7-4.3c0,0,0,0,0,0c0,0.2,0,0.3,0.1,0.4c0.1,1.7-1,3.2-2.7,3.5c-1.8,0.4-3.6-0.8-4-2.6
		c-0.1-0.6-0.1-1.3,0.1-1.8c-1.3-0.1-2.7-0.1-4.1-0.1c-2.5,0-5,0.1-7.4,0.4c0.2,0.4,0.4,0.8,0.5,1.2c0.4,1.8-0.8,3.6-2.6,4
		c-1.8,0.4-3.6-0.8-4-2.6c-0.1-0.6-0.1-1.1,0.1-1.6C52,29,50.4,29.4,49,29.9c-2.3,0.8-4.8,1.7-7.2,2.7c0.2,0.4,0.4,0.8,0.5,1.2
		c0.4,1.8-0.8,3.6-2.6,4c-1.8,0.4-3.5-0.7-4-2.5c0,0,0,0,0-0.1c0-0.2-0.1-0.5-0.1-0.7c-4.5,2.1-9.2,4.7-13.1,8
		c-5.9,4.9-10.1,11.2-9.8,19.4c0.1,1.7-4.8,6.8-3.8,9.7c0.9,2.6,3.1,4.7,6.3,6.3c2.6,1.3,5.8,2.3,9.4,3.1c0.6,0.1,1.2,0.2,1.8,0.3
		c1.3,0.2,2.6,0.4,4,0.6c0.9,0.1,1.9,0.2,2.8,0.3c3.3,0.3,6.7,0.4,10,0.3c5.6-0.1,11.1-0.5,15.6-1.2c1.4-0.2,2.9-0.5,4.5-0.8h0
		c3.2-0.6,6.7-1.3,10.2-2.1h0c1-0.2,2.1-0.5,3.1-0.8c0.7-0.2,1.4-0.4,2.2-0.6c2.8-0.8,5.5-1.7,8.1-2.7c3-1.2,5.8-2.5,8.1-4
		c4.3-2.7,7-6,6.9-9.9c-0.1-1.7-2.2-4-4.1-6c2.2-1.5,5-3.8,7.6-6.5c3.4,1,7.2,1.2,10.9,0.4C128.6,45.6,142.5,34.9,139.9,22.3z
		 M30.3,47.2c-0.5,0.5-1.1,0.9-1.8,1c-1.8,0.4-3.6-0.8-4-2.6c-0.1-0.7-0.1-1.4,0.2-2c0.4-1,1.3-1.7,2.4-1.9c1.8-0.4,3.6,0.8,4,2.6
		C31.4,45.3,31,46.4,30.3,47.2z M50.2,50.4c-1.8,0.4-3.6-0.8-4-2.6c-0.4-1.8,0.8-3.6,2.6-4c1.8-0.4,3.6,0.8,4,2.6
		C53.2,48.2,52,50,50.2,50.4z M66.3,39.8c1.8-0.4,3.6,0.8,4,2.6c0.3,1.3-0.3,2.7-1.3,3.4c-0.4,0.3-0.8,0.5-1.2,0.6
		c-1.4,0.3-2.7-0.3-3.4-1.3c-0.3-0.4-0.5-0.8-0.6-1.3C63.3,41.9,64.5,40.2,66.3,39.8z M85.9,39.9c-1.8,0.4-3.6-0.8-4-2.6
		c-0.4-1.8,0.8-3.6,2.6-4c1.8-0.4,3.6,0.8,4,2.6C88.9,37.8,87.7,39.5,85.9,39.9z M117.2,15.1c-0.7,0.2-1.4-0.3-1.5-1
		c-0.1-0.7,0.3-1.4,1-1.5c0.7-0.1,1.4,0.3,1.5,1C118.3,14.3,117.9,15,117.2,15.1z"/>
	<path class="st6" d="M117.2,15.1c-0.7,0.2-1.4-0.3-1.5-1c-0.1-0.7,0.3-1.4,1-1.5c0.7-0.1,1.4,0.3,1.5,1
		C118.3,14.3,117.9,15,117.2,15.1z"/>
	<path class="st6" d="M50.2,50.4c-1.8,0.4-3.6-0.8-4-2.6c-0.4-1.8,0.8-3.6,2.6-4c1.8-0.4,3.6,0.8,4,2.6C53.2,48.2,52,50,50.2,50.4z"
		/>
	<path class="st6" d="M85.9,39.9c-1.8,0.4-3.6-0.8-4-2.6c-0.4-1.8,0.8-3.6,2.6-4c1.8-0.4,3.6,0.8,4,2.6
		C88.9,37.8,87.7,39.5,85.9,39.9z"/>
	<path class="st6" d="M30.3,47.2c-0.5,0.5-1.1,0.9-1.8,1c-1.8,0.4-3.6-0.8-4-2.6c-0.1-0.7-0.1-1.4,0.2-2c0.4-1,1.3-1.7,2.4-1.9
		c1.8-0.4,3.6,0.8,4,2.6C31.4,45.3,31,46.4,30.3,47.2z"/>
	<path class="st6" d="M68.9,45.8c-0.4,0.3-0.8,0.5-1.2,0.6c-1.4,0.3-2.7-0.3-3.4-1.3c-0.3-0.4-0.5-0.8-0.6-1.3
		c-0.4-1.8,0.8-3.6,2.6-4c1.8-0.4,3.6,0.8,4,2.6C70.5,43.7,70,45.1,68.9,45.8z"/>
	<path class="st6" d="M77.7,28.2c0.1,1.7-1,3.2-2.7,3.5c-1.8,0.4-3.6-0.8-4-2.6c-0.1-0.6-0.1-1.3,0.1-1.8c-1.3-0.1-2.7-0.1-4.1-0.1
		c-2.5,0-5,0.1-7.4,0.4c0.2,0.4,0.4,0.8,0.5,1.2c0.4,1.8-0.8,3.6-2.6,4c-1.8,0.4-3.6-0.8-4-2.6c-0.1-0.6-0.1-1.1,0.1-1.6
		C52,29,50.4,29.4,49,29.9c-2.3,0.8-4.8,1.7-7.2,2.7c0.2,0.4,0.4,0.8,0.5,1.2c0.4,1.8-0.8,3.6-2.6,4c-1.8,0.4-3.5-0.7-4-2.5
		c0,0,0,0,0-0.1c0-0.2-0.1-0.5-0.1-0.7c1.3-0.6,2.6-1.2,3.9-1.7c0.3-0.1,0.6-0.2,0.9-0.4c0.3-0.1,0.6-0.2,0.9-0.3
		c2.4-1,4.6-1.7,6.5-2.4c1.7-0.6,3.7-1.1,5.9-1.6c0.7-0.1,1.3-0.3,2-0.4c0.7-0.1,1.4-0.2,2.1-0.3c0.5-0.1,1-0.1,1.4-0.2
		c3.8-0.4,7.9-0.6,11.9-0.3v0c1.1,0.1,2.1,0.2,3.2,0.3c1,0.1,2.1,0.3,3.1,0.5c0,0,0,0,0,0C77.7,27.9,77.7,28.1,77.7,28.2z"/>
	<path class="st6" d="M30.3,47.2c-0.5,0.5-1.1,0.9-1.8,1c-1.8,0.4-3.6-0.8-4-2.6c-0.1-0.7-0.1-1.4,0.2-2c0.4-1,1.3-1.7,2.4-1.9
		c1.8-0.4,3.6,0.8,4,2.6C31.4,45.3,31,46.4,30.3,47.2z"/>
	<path class="st6" d="M39.8,37.9c-1.8,0.4-3.5-0.7-4-2.5c2-1,4-1.9,6-2.7c0.2,0.4,0.4,0.8,0.5,1.2C42.7,35.7,41.6,37.5,39.8,37.9z"
		/>
	<path class="st6" d="M50.2,50.4c-1.8,0.4-3.6-0.8-4-2.6c-0.4-1.8,0.8-3.6,2.6-4c1.8-0.4,3.6,0.8,4,2.6C53.2,48.2,52,50,50.2,50.4z"
		/>
	<path class="st6" d="M57.6,32.8c-1.8,0.4-3.6-0.8-4-2.6c-0.1-0.6-0.1-1.1,0.1-1.6c1.9-0.4,3.9-0.7,6-1c0.2,0.4,0.4,0.8,0.5,1.2
		C60.6,30.6,59.4,32.4,57.6,32.8z"/>
	<path class="st6" d="M77.7,28.2c0.1,1.7-1,3.2-2.7,3.5c-1.8,0.4-3.6-0.8-4-2.6c-0.1-0.6-0.1-1.3,0.1-1.8
		C73.5,27.5,75.7,27.8,77.7,28.2z"/>
	<path class="st6" d="M68.9,45.8c-0.4,0.3-0.8,0.5-1.2,0.6c-1.4,0.3-2.7-0.3-3.4-1.3c-0.3-0.4-0.5-0.8-0.6-1.3
		c-0.4-1.8,0.8-3.6,2.6-4c1.8-0.4,3.6,0.8,4,2.6C70.5,43.7,70,45.1,68.9,45.8z"/>
	<path class="st6" d="M85.9,39.9c-1.8,0.4-3.6-0.8-4-2.6c-0.4-1.8,0.8-3.6,2.6-4c1.8-0.4,3.6,0.8,4,2.6
		C88.9,37.8,87.7,39.5,85.9,39.9z"/>
	<path class="st6" d="M117.2,15.1c-0.7,0.2-1.4-0.3-1.5-1c-0.1-0.7,0.3-1.4,1-1.5c0.7-0.1,1.4,0.3,1.5,1
		C118.3,14.3,117.9,15,117.2,15.1z"/>
	<g>
		<path class="st6" d="M57.6,32.8c-1.8,0.4-3.6-0.8-4-2.6c-0.1-0.6-0.1-1.1,0.1-1.6c0-0.1,0.1-0.3,0.1-0.4c0.7-0.1,1.3-0.3,2-0.4
			c0.7-0.1,1.4-0.2,2.1-0.3c0.5-0.1,1-0.1,1.4-0.2c0.1,0.1,0.2,0.2,0.2,0.3c0.2,0.4,0.4,0.8,0.5,1.2C60.6,30.6,59.4,32.4,57.6,32.8z
			"/>
		<path class="st6" d="M50.2,50.4c-1.8,0.4-3.6-0.8-4-2.6c-0.4-1.8,0.8-3.6,2.6-4c1.8-0.4,3.6,0.8,4,2.6C53.2,48.2,52,50,50.2,50.4z
			"/>
		<path class="st6" d="M39.8,37.9c-1.8,0.4-3.5-0.7-4-2.5c0,0,0,0,0-0.1c0-0.2-0.1-0.5-0.1-0.7c1.3-0.6,2.6-1.2,3.9-1.7
			c0.3-0.1,0.6-0.2,0.9-0.4c0.3-0.1,0.6-0.2,0.9-0.4l0,0c0.1,0.1,0.3,0.3,0.4,0.5c0.2,0.4,0.4,0.8,0.5,1.2
			C42.7,35.7,41.6,37.5,39.8,37.9z"/>
		<path class="st6" d="M68.9,45.8c-0.4,0.3-0.8,0.5-1.2,0.6c-1.4,0.3-2.7-0.3-3.4-1.3c-0.3-0.4-0.5-0.8-0.6-1.3
			c-0.4-1.8,0.8-3.6,2.6-4c1.8-0.4,3.6,0.8,4,2.6C70.5,43.7,70,45.1,68.9,45.8z"/>
		<path class="st6" d="M77.7,28.2c0.1,1.7-1,3.2-2.7,3.5c-1.8,0.4-3.6-0.8-4-2.6c-0.1-0.6-0.1-1.3,0.1-1.8c0-0.1,0.1-0.2,0.1-0.3v0
			c1.1,0.1,2.1,0.2,3.2,0.3c1,0.1,2.1,0.3,3.1,0.5c0,0,0,0,0,0C77.7,27.9,77.7,28.1,77.7,28.2z"/>
		<path class="st6" d="M30.3,47.2c-0.5,0.5-1.1,0.9-1.8,1c-1.8,0.4-3.6-0.8-4-2.6c-0.1-0.7-0.1-1.4,0.2-2c0.4-1,1.3-1.7,2.4-1.9
			c1.8-0.4,3.6,0.8,4,2.6C31.4,45.3,31,46.4,30.3,47.2z"/>
		<path class="st6" d="M85.9,39.9c-1.8,0.4-3.6-0.8-4-2.6c-0.4-1.8,0.8-3.6,2.6-4c1.8-0.4,3.6,0.8,4,2.6
			C88.9,37.8,87.7,39.5,85.9,39.9z"/>
	</g>
</g>
</svg>
