<?xml version="1.0" encoding="utf-8"?>
<!-- Generator: Adobe Illustrator 22.0.1, SVG Export Plug-In . SVG Version: 6.00 Build 0)  -->
<svg version="1.1" id="圖層_1" xmlns="http://www.w3.org/2000/svg" xmlns:xlink="http://www.w3.org/1999/xlink" x="0px" y="0px"
	 viewBox="0 0 155.6 175.8" style="enable-background:new 0 0 155.6 175.8;" xml:space="preserve">
<style type="text/css">
	.st0{fill:#CCCCCC;}
	.st1{fill:#3BB5EA;}
	.st2{fill:#70B279;}
	.st3{fill:#F5B19B;}
	.st4{fill:#C1272D;}
	.st5{fill:#CE424D;}
	.st6{fill:none;stroke:#000000;stroke-miterlimit:10;}
	.st7{stroke:#000000;stroke-miterlimit:10;}
</style>
<g>
	<path class="st4" d="M86.4,124.2c0,1.2-1,2.2-2.2,2.2c-1.2,0-2.2-1-2.2-2.2c0-1.2,1-2.2,2.2-2.2C85.4,122,86.4,123,86.4,124.2z"/>
	<path class="st4" d="M103.8,122.1c0,1.2-1,2.2-2.2,2.2c-1.2,0-2.2-1-2.2-2.2s1-2.2,2.2-2.2C102.8,119.9,103.8,120.9,103.8,122.1z"
		/>
	<path class="st4" d="M118.4,115.8c0,1.2-1,2.2-2.2,2.2c-1.2,0-2.2-1-2.2-2.2c0-1.2,1-2.2,2.2-2.2
		C117.4,113.6,118.4,114.6,118.4,115.8z"/>
	<g>
		<path class="st6" d="M96.3,57c-1.6-0.2-3.2-0.2-4.9-0.2C91,41,94.7,32,95.7,32.7C96.7,33.5,95.1,42.9,96.3,57z"/>
		<path class="st6" d="M98.6,73.1c-0.4,0.4-0.9,0.7-1.5,0.7c-1.1,0-2-0.9-2-2s0.9-2,2-2c0.3,0,0.6,0.1,0.9,0.2
			C98.2,71,98.4,72,98.6,73.1z"/>
		<path class="st6" d="M72.4,62.2c-1.4,0.8-2.8,1.7-4,2.7c-6.7-12.5-13.1-19.5-12.7-20.7C56.1,43,64.2,48.7,72.4,62.2z"/>
		<path class="st6" d="M74.8,78.4c0,0.1,0,0.3,0,0.4c-0.3-0.7-0.5-1.3-0.8-2C74.5,77.2,74.8,77.7,74.8,78.4z"/>
	</g>
	<g>
		<g>
			<path class="st6" d="M42.1,90.2c-0.1,0-0.2,0-0.3,0c-2.3-0.4-4.6-1.2-6.6-2.4C35.1,88,34.8,88,34.6,88c-2.6,0.3-23,1.1-30.2-13.5
				c-9.8-20,1.2-37.7,5.6-38.9c1-0.3,5.4-2.8,6.1,1.1c0.6,3.9-1.9,7.1-1.1,10.4c0.8,3.3,4.1,0.8,5.6,5.1c1.5,4.2,0.5,6.4,2.8,11.1
				c1,2,3.5,4.6,6.3,7.2c-0.2-3-0.8-6-2.3-8.7c-4.2-7.3-0.8-9.3-1.5-12.2c-0.9-3.2-3.4-3.9-3.6-6.2c-0.2-2.1,0.7-4.6,4.1-3.5
				c3.4,1.1,12.7,6.3,16.5,19.9c2.5,9-0.4,16.5-3,20.7c1.7,1.2,3.3,2.5,4.9,3.9c0.1,0.1,0.1,0.1,0.2,0.2
				C45.5,85.9,43.6,90,42.1,90.2z"/>
			<g>
				<path class="st6" d="M54.5,85.5c-0.9,3.3-1.5,6.8-1.5,10.4c-3.5-0.6-7.2-2.1-10-4.7c-0.3-0.2-0.6-0.6-0.9-0.9
					c1.5-0.2,3.3-4.3,2.6-5.7c0.3,0,0.5,0,0.7,0C48.5,84.5,51.5,85,54.5,85.5z"/>
			</g>
		</g>
		<g>
			<g>
				<path class="st6" d="M131.2,63.9c-0.1,0.5-0.1,0.9-0.2,1.2c-0.9,3.8-3.2,7-5.8,9.4c-1.9-3-4.3-5.6-6.9-7.9c2.3-2,4.5-4,7.1-5.7
					c0.2-0.1,0.4-0.2,0.6-0.4C126,62.1,129.8,64.5,131.2,63.9z"/>
				<path class="st6" d="M136.3,58c-0.2,0.1-0.4,0.2-0.6,0.2c-1.1,2.1-2.5,4-4.3,5.6c-0.1,0.1-0.1,0.1-0.2,0.1
					c-1.4,0.6-5.2-1.9-5.2-3.3c0-0.1,0-0.2,0-0.3c0.5-2,1.3-3.9,2-5.9c-4.5-2.2-11-6.9-13.8-15.8c-4.2-13.5,0.7-22.9,3-25.6
					c2.3-2.7,4.4-1.1,5.4,0.7c1,2-0.7,4,0.3,7.1c0.9,2.8,4.9,2.7,5.3,11.1c0.1,3.1,1.3,5.9,2.8,8.5c0.9-3.7,1.6-7.2,1.3-9.4
					c-0.6-5.2-2.7-6.5-3.7-10.8c-1-4.3,3.1-4.1,2-7.3c-1.1-3.2-4.9-4.5-6.5-8.1c-1.6-3.7,3.5-3.9,4.5-4.2
					c4.3-1.3,23.2,7.5,25.8,29.7C156.2,46.5,138.6,56.8,136.3,58z"/>
			</g>
		</g>
	</g>
	<g>
		<g>
			<g>
				<path class="st6" d="M134.1,117.2c-0.1,0.1-0.3,0.2-0.4,0.2c-1.8,1-3.9,1.5-5.8,2.1c-0.3,0.1-0.6,0.2-0.9,0.3
					c0.7-1.8,1.2-3.7,1.6-5.7c-0.2,0-0.4,0.1-0.6,0.1c-1.2,0-2.2-1-2.2-2.2c0-0.8,0.4-1.5,1-1.9c0.7-0.1,1.5-0.1,2.3-0.1
					c0,0,0.1,0,0.1,0c1.2,0.1,2.5,0.5,3.8,1.2c0.2,0.1,0.5,0.3,0.8,0.5C132.9,112.4,133.2,116.4,134.1,117.2z"/>
				<path class="st6" d="M147.9,118.2C147.9,118.2,147.9,118.2,147.9,118.2c-0.9-0.6-2.6,2.3-2.1,3.4c-2-0.4-4.1-1.3-6.1-2
					c-1.8-0.7-3.6-1.3-5.4-2.3c-0.1,0-0.1-0.1-0.1-0.1c-0.9-0.8-1.2-4.8-0.5-5.5c0,0,0.1-0.1,0.2-0.1c2.1-0.6,4.5-0.2,6.6,0.6
					c2.3,0.9,4.9,2.5,6.8,4.9C147.4,117.4,147.6,117.8,147.9,118.2z"/>
				<path class="st6" d="M154.8,134.1c-0.9,0.4-4.8-5.4-6-7.3c-1-1.7-2.1-3.4-3-5.2c0,0,0,0,0,0c-0.5-1,1.2-4,2.1-3.4c0,0,0,0,0.1,0
					c1.8,1.2,3.4,3.1,4.6,5.1C154.8,127.1,155.7,133.7,154.8,134.1z"/>
			</g>
			<g>
				<path class="st6" d="M127.5,128.7c-0.1,0.1-0.2,0.1-0.3,0.1c-1.4,0.6-2.9,0.8-4.4,1c-0.6,0.1-1.2,0.2-1.9,0.3
					c0.6-0.7,1.2-1.4,1.7-2.2c-0.1,0-0.2,0-0.3,0c-1.2,0-2.2-1-2.2-2.2c0-1.2,1-2.2,2.2-2.2c1,0,1.8,0.6,2.1,1.5
					c0.3-0.5,0.6-1.1,0.9-1.7c0.5,0.2,0.9,0.5,1.4,0.8c0.2,0.1,0.4,0.3,0.6,0.4C126.8,125.1,126.9,128,127.5,128.7z"/>
				<path class="st6" d="M137.7,130.7C137.7,130.7,137.6,130.7,137.7,130.7c-0.6-0.5-2,1.5-1.7,2.3c-1.5-0.5-3-1.3-4.4-2
					c-1.3-0.7-2.6-1.3-3.9-2.1c0,0-0.1-0.1-0.1-0.1c-0.6-0.7-0.7-3.6-0.2-4.1h0c0,0,0.1-0.1,0.1-0.1c1.6-0.2,3.3,0.2,4.9,1
					c1.7,0.9,3.5,2.3,4.8,4.2C137.3,130.1,137.5,130.3,137.7,130.7z"/>
				<path class="st6" d="M142.2,143c-0.7,0.2-3.4-4.4-4.2-5.9c-0.7-1.3-1.4-2.7-2.1-4.1c0,0,0,0,0,0c-0.3-0.8,1.1-2.8,1.7-2.3
					c0,0,0,0,0,0c0,0,0,0,0,0c1.3,1.1,2.4,2.6,3.2,4.2C142.5,137.9,142.9,142.8,142.2,143z"/>
			</g>
			<g>
				<path class="st6" d="M132.8,102c-0.1,0.3-0.2,0.5-0.3,0.7c-0.8,1.7-2,2.8-3.4,3.7c0-2.4-0.3-4.8-0.8-7.3
					c0.6-0.2,1.2-0.4,1.9-0.5c0.1,0,0.2,0,0.4-0.1C130.4,99.4,132,102,132.8,102z"/>
				<path class="st6" d="M139.4,91.9c-0.1,2.4-1.1,4.7-2.2,6.4c-1.1,1.6-2.5,3-4.1,3.7c0,0-0.1,0-0.1,0c-0.8,0-2.4-2.6-2.2-3.5
					c0-0.1,0-0.1,0-0.1c0.8-1.5,1.7-2.8,2.6-4.1c1-1.5,2-3.1,3.1-4.3c0.2,0.9,2.7,1.7,3,1c0,0,0,0,0-0.1
					C139.4,91.2,139.4,91.6,139.4,91.9z"/>
				<path class="st6" d="M139.3,90.8C139.3,90.8,139.3,90.8,139.3,90.8c-0.3,0.8-2.8,0-3-0.9c0,0,0,0,0,0c-0.2-1.5-0.3-3.1-0.4-4.7
					c-0.1-1.7-0.2-7.2,0.6-7.4c0.8-0.2,3.3,4.2,3.5,7.6C140.2,87.2,140,89.2,139.3,90.8z"/>
			</g>
		</g>
		<g>
			<g>
				<path class="st6" d="M77.4,135.8c-0.8,0.3-1.6,0.5-2.4,0.7c-2,0.6-4,1.3-6,1.4c-0.1,0-0.3,0-0.5,0c0.2-1.2-1.6-4.7-2.6-4.9
					c0.1-0.3,0.3-0.6,0.4-0.8c0.8-1.6,2-2.7,3.3-3.6h0c0.1,0.1,0.1,0.2,0.2,0.3c0.2,0.2,0.4,0.5,0.7,0.8c0,0,0,0,0,0
					C72.5,132,74.8,134,77.4,135.8z"/>
				<path class="st6" d="M68.5,137.9c0,0.1,0,0.1-0.1,0.2c-1,1.7-2.2,3.3-3.3,4.8c-1.3,1.7-2.5,3.6-4,5c-0.1-1.2-3.2-2.6-3.6-1.7
					c0,0,0,0,0,0.1c0-0.5,0-1,0-1.3c0.3-3.1,1.5-5.8,3-7.8c1.4-1.9,3.1-3.4,5.2-4.1c0.1,0,0.1,0,0.2,0
					C66.9,133.2,68.8,136.7,68.5,137.9z"/>
				<path class="st6" d="M60.3,163.4c-1,0.1-3.8-5.8-3.9-10.3c-0.1-2.3,0.2-4.8,1.1-6.8c0,0,0,0,0-0.1c0.4-0.9,3.4,0.6,3.6,1.7
					c0,0,0,0,0,0c0.2,2,0.2,4,0.2,6C61.4,156.2,61.2,163.2,60.3,163.4z"/>
			</g>
			<g>
				<path class="st6" d="M88.3,140.7c-1.1,0.7-2.3,1.2-3.5,1.7c-1.4,0.6-2.7,1.3-4.2,1.5c-0.1,0-0.2,0-0.3,0.1
					c0.1-0.9-1.4-3.4-2.1-3.5c0.1-0.3,0.2-0.5,0.2-0.7c0.4-1,0.9-1.8,1.6-2.4c0,0,0,0,0,0c0.8,0.4,1.5,0.8,2.3,1.2
					C84.2,139.5,86.2,140.2,88.3,140.7z"/>
				<path class="st6" d="M80.3,144c0,0.1,0,0.1,0,0.2c-0.6,1.4-1.4,2.7-2.1,3.9c-0.8,1.4-1.6,2.9-2.6,4.1c-0.2-0.9-2.4-1.8-2.6-1
					c0,0,0,0,0,0.1c0-0.4,0-0.7,0-1c0-2.4,0.8-4.5,1.8-6.2c0.9-1.5,2.1-2.9,3.5-3.5c0,0,0.1,0,0.1,0C78.9,140.5,80.4,143,80.3,144z"
					/>
				<path class="st6" d="M75.7,164c-0.7,0.2-3-4.1-3.3-7.6c-0.2-1.8-0.1-3.7,0.4-5.2c0,0,0,0,0-0.1c0.2-0.7,2.5,0.2,2.6,1
					c0,0,0,0,0,0c0.2,1.5,0.4,3,0.5,4.5C76.1,158.4,76.4,163.8,75.7,164z"/>
			</g>
			<g>
				<path class="st6" d="M67.7,126.1c-1.8,0.2-3.9,0-5.8-1.2c-0.2-0.1-0.4-0.3-0.6-0.4c0.7-0.5,0.6-3.4,0-4.2
					c0.1-0.1,0.2-0.1,0.4-0.2c0.8-0.3,1.6-0.5,2.4-0.7C65.1,121.8,66.3,124,67.7,126.1z"/>
				<path class="st6" d="M61.3,124.5c0,0-0.1,0-0.1,0.1c-1.8,0.3-3.8-0.1-5.5-0.9c-1.9-0.8-3.9-2.2-5.3-4.2
					c-0.2-0.2-0.4-0.5-0.6-0.9c0,0,0,0,0.1,0c0.7,0.5,2.3-1.6,2-2.4c1.7,0.4,3.3,1.2,5,1.9c1.5,0.6,3,1.3,4.4,2.1
					c0,0,0.1,0.1,0.1,0.1C61.9,121,62,124,61.3,124.5z"/>
				<path class="st6" d="M49.8,118.6C49.8,118.6,49.8,118.6,49.8,118.6c-1.5-1.1-2.7-2.6-3.6-4.2c-1.7-3-2-8.1-1.2-8.3
					c0.8-0.3,3.7,4.4,4.5,5.9c0.8,1.3,1.5,2.7,2.2,4.1c0,0,0,0,0,0C52.1,117,50.5,119.1,49.8,118.6z"/>
			</g>
		</g>
	</g>
	<path class="st6" d="M94.4,171.7c-2.1-7.1,1.4-12.8,7.6-16.5c2.5,1.5,5.7,2,8.8,1.1c3.1-0.9,5.6-3.1,6.8-5.7
		c7.3-0.2,13.3,2.7,15.4,9.7C135.9,169.9,97.3,181.3,94.4,171.7z"/>
	<path class="st6" d="M117.7,150.6c-1.2,2.6-3.7,4.8-6.8,5.7c-3.1,0.9-6.3,0.4-8.8-1.1c-1.9-1.2-3.4-3-4.1-5.3
		c3.2,1.2,6.8,1.3,10.3,0.3c4.2-1.2,7.5-3.9,9.5-7.3c0.3,0.2,0.5,0.6,0.6,0.9C119,146.1,118.7,148.5,117.7,150.6z"/>
	<path class="st6" d="M117.7,142.8c-2,3.4-5.3,6.1-9.5,7.3c-3.6,1.1-7.2,0.9-10.3-0.3c-4.2-1.5-7.5-4.7-9-9c0.3,0.1,0.7,0.1,1,0.2
		c0.1,0,0.2,0,0.3,0.1c0,0,0.1,0,0.1,0c0.2,0,0.3,0.1,0.5,0.1c0.6,0.1,1.3,0.2,1.9,0.3c0.6,0.1,1.2,0.1,1.7,0.1c0.6,0,1.2,0,1.7,0
		c0.3,0,0.5,0,0.8,0c0.9,0,1.8-0.1,2.8-0.2c0.9-0.1,1.8-0.2,2.8-0.4c0.5-0.1,0.9-0.2,1.4-0.3c0.5-0.1,0.9-0.2,1.4-0.4
		c0.3-0.1,0.7-0.2,1-0.3c5.1-1.7,9.5-4.5,13-8.2C120.3,135.7,119.7,139.6,117.7,142.8z"/>
	<path class="st6" d="M106.4,139.6c0,0.2,0,0.3-0.1,0.5c-0.3,0.1-0.7,0.2-1,0.3c-0.5,0.1-0.9,0.3-1.4,0.4c-0.5,0.1-0.9,0.2-1.4,0.3
		c-0.4-0.4-0.6-0.9-0.6-1.5c0-1.2,1-2.2,2.2-2.2C105.4,137.3,106.4,138.3,106.4,139.6z"/>
	<path class="st6" d="M128.3,99.1c-0.2-1-0.5-2-0.7-2.9c-0.1-0.4-0.3-0.8-0.5-1.2c-1.1,1.4-2.6,2.8-4.2,4.1c0.8,0.2,1.4,0.8,1.6,1.5
		c0.1,0.2,0.1,0.4,0.1,0.6c0,1.2-1,2.2-2.2,2.2c-0.7,0-1.4-0.4-1.8-0.9c-0.3-0.4-0.4-0.8-0.4-1.3c0,0,0-0.1,0-0.1
		c-2.8,1.9-6,3.7-9.5,5.4c0.1,0.2,0.1,0.5,0.1,0.8c0,1.2-1,2.2-2.2,2.2c-0.9,0-1.6-0.5-2-1.2c-3.8,1.5-7.8,2.9-11.8,4
		c0,0.1,0,0.2,0,0.3c0,1.2-1,2.2-2.2,2.2c-1,0-1.8-0.6-2.1-1.5c-5.4,1.2-10.8,2-15.7,2.2c0.4,0.4,0.6,0.9,0.6,1.5
		c0,0.9-0.5,1.7-1.3,2c-0.3,0.1-0.6,0.2-0.9,0.2c-0.7,0-1.4-0.4-1.8-0.9c-0.3-0.4-0.4-0.8-0.4-1.3c0-0.6,0.2-1.1,0.6-1.5
		c-3.5-0.1-6.7-0.5-9.3-1.4c0.1,0.4,0.1,0.8,0.3,1.3c0.4,1.4,0.9,2.8,1.5,4.1c1,2.4,2.2,4.6,3.6,6.6c0.2,0,0.4,0,0.6-0.1
		c0,0,0.1,0,0.1,0c0.4-0.4,1-0.7,1.6-0.7c0.1,0,0.3,0,0.4,0c0,0,0,0,0,0c1,0.2,1.7,1.1,1.8,2.1v0.1c0,1.1-0.7,1.9-1.7,2.1
		c2,2.3,4.3,4.4,6.9,6.1c0.4,0.3,0.9,0.6,1.3,0.8c0.2-1.1,1.1-1.9,2.2-1.9c0.7,0,1.4,0.4,1.8,0.9c0.3,0.4,0.4,0.8,0.4,1.3
		c0,0.6-0.3,1.2-0.7,1.6c1.9,0.9,3.9,1.6,6,2.1c0.2,0.1,0.4,0.1,0.6,0.2c0.3,0.1,0.7,0.1,1,0.2c0.1,0,0.2,0,0.3,0.1c0,0,0.1,0,0.1,0
		c0.2,0,0.3,0.1,0.5,0.1c0.6,0.1,1.3,0.2,1.9,0.3c0.6,0.1,1.2,0.1,1.7,0.1c0.6,0,1.2,0,1.7,0c0.3,0,0.5,0,0.8,0
		c0.9,0,1.8-0.1,2.8-0.2c0.9-0.1,1.8-0.2,2.8-0.4c-0.4-0.4-0.6-0.9-0.6-1.5c0-1.2,1-2.2,2.2-2.2c1.2,0,2.2,1,2.2,2.2
		c0,0.2,0,0.3-0.1,0.5c5.1-1.7,9.5-4.5,13-8.2c0.5-0.6,1.1-1.2,1.6-1.8c0.6-0.7,1.2-1.4,1.7-2.2c-0.1,0-0.2,0-0.3,0
		c-1.2,0-2.2-1-2.2-2.2c0-1.2,1-2.2,2.2-2.2c1,0,1.8,0.6,2.1,1.5c0.3-0.5,0.6-1.1,0.9-1.7c0.6-1.2,1.1-2.4,1.6-3.6
		c0.7-1.8,1.2-3.7,1.6-5.7c-0.2,0-0.4,0.1-0.6,0.1c-1.2,0-2.2-1-2.2-2.2c0-0.8,0.4-1.5,1-1.9c0.3-0.2,0.8-0.4,1.2-0.4
		c0.4,0,0.7,0.1,1.1,0.3c0,0,0.1,0,0.1,0c0.1-1.2,0.1-2.4,0.1-3.7C129.1,104,128.9,101.5,128.3,99.1z M84.2,126.4
		c-1.2,0-2.2-1-2.2-2.2c0-1.2,1-2.2,2.2-2.2c1.2,0,2.2,1,2.2,2.2C86.4,125.4,85.4,126.4,84.2,126.4z M101.6,124.3
		c-1.2,0-2.2-1-2.2-2.2s1-2.2,2.2-2.2c1.2,0,2.2,1,2.2,2.2S102.8,124.3,101.6,124.3z M116.2,118c-1.2,0-2.2-1-2.2-2.2
		c0-1.2,1-2.2,2.2-2.2c1.2,0,2.2,1,2.2,2.2C118.4,117,117.4,118,116.2,118z"/>
	<path class="st6" d="M94.8,112.6c0,1.2-1,2.2-2.2,2.2c-1,0-1.8-0.6-2.1-1.5c1.4-0.3,2.8-0.7,4.3-1.1
		C94.8,112.4,94.8,112.5,94.8,112.6z"/>
	<path class="st6" d="M110.8,107.2c0,1.2-1,2.2-2.2,2.2c-0.9,0-1.6-0.5-2-1.2c1.4-0.6,2.7-1.2,4-1.8h0
		C110.8,106.7,110.8,107,110.8,107.2z"/>
	<path class="st6" d="M68.4,126c-0.2,0.2-0.3,0.4-0.4,0.6c-0.1-0.2-0.2-0.3-0.3-0.5c0.2,0,0.4,0,0.6-0.1C68.3,126,68.4,126,68.4,126
		z"/>
	<path class="st6" d="M69.8,128.9c-0.1-0.1-0.2-0.2-0.2-0.3h0C69.7,128.7,69.8,128.8,69.8,128.9z"/>
	<path class="st6" d="M86.4,124.2c0,1.2-1,2.2-2.2,2.2c-1.2,0-2.2-1-2.2-2.2c0-1.2,1-2.2,2.2-2.2C85.4,122,86.4,123,86.4,124.2z"/>
	<path class="st6" d="M103.8,122.1c0,1.2-1,2.2-2.2,2.2c-1.2,0-2.2-1-2.2-2.2s1-2.2,2.2-2.2C102.8,119.9,103.8,120.9,103.8,122.1z"
		/>
	<path class="st6" d="M118.4,115.8c0,1.2-1,2.2-2.2,2.2c-1.2,0-2.2-1-2.2-2.2c0-1.2,1-2.2,2.2-2.2
		C117.4,113.6,118.4,114.6,118.4,115.8z"/>
	<path class="st6" d="M106.4,139.6c0,0.2,0,0.3-0.1,0.5c-0.3,0.1-0.7,0.2-1,0.3c-0.5,0.1-0.9,0.3-1.4,0.4c-0.5,0.1-0.9,0.2-1.4,0.3
		c-0.4-0.4-0.6-0.9-0.6-1.5c0-1.2,1-2.2,2.2-2.2C105.4,137.3,106.4,138.3,106.4,139.6z"/>
	<path class="st6" d="M124.5,125.1c-0.3,0.5-0.6,0.9-0.8,1.4c0,0.1-0.1,0.1-0.1,0.2c-0.3,0.4-0.6,0.8-0.8,1.2c-0.1,0-0.2,0-0.3,0
		c-1.2,0-2.2-1-2.2-2.2c0-1.2,1-2.2,2.2-2.2C123.3,123.5,124.2,124.2,124.5,125.1z"/>
	<path class="st6" d="M129.1,110.1C129.1,110.1,129.1,110.1,129.1,110.1c-0.1,1.4-0.3,2.7-0.6,4.1c-0.2,0-0.4,0.1-0.6,0.1
		c-1.2,0-2.2-1-2.2-2.2c0-0.8,0.4-1.5,1-1.9c0.3-0.2,0.8-0.4,1.2-0.4c0.4,0,0.7,0.1,1.1,0.3C129,110,129,110,129.1,110.1z"/>
	<g>
		<path class="st7" d="M75.5,117c0,0.9-0.5,1.7-1.3,2c-0.3,0.1-0.6,0.2-0.9,0.2c-0.7,0-1.4-0.4-1.8-0.9c-0.3-0.4-0.4-0.8-0.4-1.3
			c0-0.6,0.2-1.1,0.6-1.5c1,0,2.1,0,3.2,0C75.2,115.9,75.5,116.4,75.5,117z"/>
		<path class="st7" d="M72.2,127.4L72.2,127.4c0,1.1-0.7,2-1.7,2.2c0,0,0,0,0,0c-0.2-0.2-0.4-0.5-0.7-0.8c-0.1-0.1-0.1-0.2-0.2-0.3
			h0c-0.5-0.7-1.1-1.4-1.6-2.1c0.1-0.2,0.2-0.4,0.4-0.6c0.4-0.4,1-0.7,1.6-0.7c0.1,0,0.3,0,0.4,0c0,0,0,0,0,0
			C71.4,125.5,72.2,126.4,72.2,127.4z"/>
		<path class="st7" d="M83,137c0,0.6-0.3,1.2-0.7,1.6c-0.8-0.4-1.6-0.8-2.3-1.2c0,0,0,0,0,0s0,0,0,0c-0.5-0.2-0.9-0.5-1.3-0.8
			c0.2-1.1,1.1-1.9,2.2-1.9c0.7,0,1.4,0.4,1.8,0.9C82.9,136,83,136.5,83,137z"/>
		<path class="st7" d="M86.4,124.2c0,1.2-1,2.2-2.2,2.2c-1.2,0-2.2-1-2.2-2.2c0-1.2,1-2.2,2.2-2.2C85.4,122,86.4,123,86.4,124.2z"/>
		<path class="st7" d="M94.8,112.6c0,1.2-1,2.2-2.2,2.2c-1,0-1.8-0.6-2.1-1.5c1.4-0.3,2.8-0.7,4.3-1.1
			C94.8,112.4,94.8,112.5,94.8,112.6z"/>
		<path class="st7" d="M103.8,122.1c0,1.2-1,2.2-2.2,2.2c-1.2,0-2.2-1-2.2-2.2s1-2.2,2.2-2.2C102.8,119.9,103.8,120.9,103.8,122.1z"
			/>
		<path class="st7" d="M110.8,107.2c0,1.2-1,2.2-2.2,2.2c-0.9,0-1.6-0.5-2-1.2c1.4-0.6,2.7-1.2,4-1.8h0
			C110.8,106.7,110.8,107,110.8,107.2z"/>
		<path class="st7" d="M118.4,115.8c0,1.2-1,2.2-2.2,2.2c-1.2,0-2.2-1-2.2-2.2c0-1.2,1-2.2,2.2-2.2
			C117.4,113.6,118.4,114.6,118.4,115.8z"/>
		<path class="st7" d="M124.6,101.2c0,1.2-1,2.2-2.2,2.2c-0.7,0-1.4-0.4-1.8-0.9c-0.3-0.4-0.4-0.8-0.4-1.3c0,0,0-0.1,0-0.1
			c1-0.7,1.9-1.3,2.7-2c0.8,0.2,1.4,0.8,1.6,1.5C124.6,100.8,124.6,101,124.6,101.2z"/>
		<path class="st7" d="M106.4,139.6c0,0.2,0,0.3-0.1,0.5c-0.3,0.1-0.7,0.2-1,0.3c-0.5,0.1-0.9,0.3-1.4,0.4c-0.5,0.1-0.9,0.2-1.4,0.3
			c-0.4-0.4-0.6-0.9-0.6-1.5c0-1.2,1-2.2,2.2-2.2C105.4,137.3,106.4,138.3,106.4,139.6z"/>
		<path class="st7" d="M124.5,125.1c-0.3,0.5-0.6,0.9-0.8,1.4c0,0.1-0.1,0.1-0.1,0.2c-0.3,0.4-0.6,0.8-0.8,1.2c-0.1,0-0.2,0-0.3,0
			c-1.2,0-2.2-1-2.2-2.2c0-1.2,1-2.2,2.2-2.2C123.3,123.5,124.2,124.2,124.5,125.1z"/>
		<path class="st7" d="M129,110.1c-0.1,1.4-0.3,2.7-0.6,4c-0.2,0-0.4,0.1-0.6,0.1c-1.2,0-2.2-1-2.2-2.2c0-0.8,0.4-1.5,1-1.9
			c0.3-0.2,0.8-0.4,1.2-0.4c0.4,0,0.7,0.1,1.1,0.3C129,110.1,129,110.1,129,110.1z"/>
	</g>
	<path class="st6" d="M129.9,85c-1.1-3.8-2.7-7.2-4.8-10.4c-1.9-3-4.3-5.6-6.9-7.9h0c-6.1-5.4-13.8-8.8-22-9.6
		c-1.6-0.2-3.2-0.2-4.9-0.2c-3.4,0.1-6.8,0.6-10.3,1.6c-3.1,0.9-6,2.2-8.7,3.8c-1.4,0.8-2.8,1.7-4,2.7c-6.8,5.2-11.6,12.4-13.9,20.6
		c-0.9,3.3-1.5,6.8-1.5,10.4c0,3.7,0.5,7.5,1.6,11.3c1,3.3,3.8,5.6,7.7,6.9c2.6,0.9,5.8,1.3,9.3,1.4c1,0,2.1,0,3.2,0
		c4.9-0.2,10.3-0.9,15.7-2.2c1.4-0.3,2.8-0.7,4.3-1.1c4-1.1,8-2.5,11.8-4c1.4-0.6,2.7-1.2,4-1.8h0c3.5-1.6,6.7-3.4,9.5-5.4
		c1-0.7,1.9-1.3,2.7-2c1.7-1.3,3.1-2.7,4.2-4.1C129.8,91.7,130.9,88.3,129.9,85z M74.8,78.8c-0.2,0.9-1,1.6-1.9,1.6
		c-1.1,0-2-0.9-2-2c0-1.1,0.9-2,2-2c0.4,0,0.8,0.1,1.1,0.4c0.5,0.4,0.8,0.9,0.8,1.6C74.8,78.5,74.8,78.7,74.8,78.8z M98.6,73.1
		c-0.4,0.4-0.9,0.7-1.5,0.7c-1.1,0-2-0.9-2-2s0.9-2,2-2c0.3,0,0.6,0.1,0.9,0.2c0.7,0.3,1.1,1,1.1,1.8C99.1,72.3,98.9,72.7,98.6,73.1
		z"/>
	<path class="st6" d="M74.8,78.4c0,0.1,0,0.3,0,0.4c-0.2,0.9-1,1.6-1.9,1.6c-1.1,0-2-0.9-2-2c0-1.1,0.9-2,2-2c0.4,0,0.8,0.1,1.1,0.4
		C74.5,77.2,74.8,77.7,74.8,78.4z"/>
	<path class="st6" d="M99.1,71.8c0,0.5-0.2,0.9-0.5,1.3c-0.4,0.4-0.9,0.7-1.5,0.7c-1.1,0-2-0.9-2-2s0.9-2,2-2c0.3,0,0.6,0.1,0.9,0.2
		C98.6,70.3,99.1,71,99.1,71.8z"/>
	<path d="M74.8,78.4c0,0.1,0,0.3,0,0.4c-0.2,0.9-1,1.6-1.9,1.6c-1.1,0-2-0.9-2-2c0-1.1,0.9-2,2-2c0.4,0,0.8,0.1,1.1,0.4
		C74.5,77.2,74.8,77.7,74.8,78.4z"/>
	<path d="M99.1,71.8c0,0.5-0.2,0.9-0.5,1.3c-0.4,0.4-0.9,0.7-1.5,0.7c-1.1,0-2-0.9-2-2s0.9-2,2-2c0.3,0,0.6,0.1,0.9,0.2
		C98.6,70.3,99.1,71,99.1,71.8z"/>
</g>
</svg>
