<?xml version="1.0" encoding="utf-8"?>
<!-- Generator: Adobe Illustrator 22.0.1, SVG Export Plug-In . SVG Version: 6.00 Build 0)  -->
<svg version="1.1" id="圖層_1" xmlns="http://www.w3.org/2000/svg" xmlns:xlink="http://www.w3.org/1999/xlink" x="0px" y="0px"
	 viewBox="0 0 95.2 119" style="enable-background:new 0 0 95.2 119;" xml:space="preserve">
<style type="text/css">
	.st0{fill:#CCCCCC;}
	.st1{fill:#3BB5EA;}
	.st2{fill:#70B279;}
	.st3{fill:#F5B19B;}
	.st4{fill:#C1272D;}
	.st5{fill:#CE424D;}
	.st6{fill:none;stroke:#000000;stroke-miterlimit:10;}
	.st7{stroke:#000000;stroke-miterlimit:10;}
</style>
<g>
	<g>
		<g>
			<g>
				<path class="st6" d="M79,7.8C76.4,6,70.7,3.2,67.5,2.3c-13.9-4-32.9,0.4-45.5,11.6C7.8,26.2,2.4,46.3,6.8,50.9
					c2.2,2.4,4.4,2.6,6.5,2.7l0,0c0.1,0,0.2,0,0.3,0c0.6,0,1.2,0.1,1.8,0.2c0.1,0,0.3,0.1,0.4,0.1c0.1,0,0.3,0.1,0.4,0.1
					c0.9,0.3,1.7,0.7,2.6,1.6c0.1,0.1,0.3,0.3,0.4,0.4c0.1,0.2,0.3,0.3,0.4,0.5c0.1,0.2,0.3,0.4,0.4,0.6c0.1,0.2,0.2,0.4,0.3,0.6
					c0.2,0.4,0.3,0.8,0.4,1.1c0.1,0.2,0.1,0.4,0.2,0.6c0,0.2,0.1,0.3,0.1,0.5c0.1,0.3,0.1,0.5,0.1,0.8c0.1,0.4,0.1,0.8,0.1,1.2
					c0.2,1.9,0,3.9,0.1,6.1c0.1,4.1,0.9,9.1,1.1,11.6c0.6,5.5,2.4,9.9-1.6,14.9c-5.6,5.4-10.6,0-16.7,3c-4.9,2.5-3.9,7.8-1.7,12.6
					c2.1,4.7,5.4,9.1,7.7,8.5c3.9-1.5-5.5-10.9-3-14.9c2.8-4.5,8.6,0.9,15.7-2.8c4.9-2.1,5.9-10,11.1-15.5c2.8-3,7.3-5.1,11.7-6
					c0,0,0,0,0,0c0.2,0,0.3-0.1,0.5-0.1c0.2,0,0.5-0.1,0.7-0.1c0.3-0.1,0.7-0.1,1-0.1c0.3,0,0.6-0.1,1-0.1l0,0
					c1.2-0.1,2.4,0,3.5,0.1c0.7,0.2,1.2,0.4,1.7,0.6c0.2,0.1,0.3,0.2,0.5,0.3c0.1,0.1,0.3,0.1,0.4,0.2c0,0,0.1,0,0.1,0.1
					c0.1,0.1,0.2,0.2,0.3,0.2c2.1,1.6,2.4,4,3.8,6c0,0,0,0,0,0c0.8,1.2,1.8,2.2,3.7,3c5.8,2.5,22.3-9.8,28.6-27.7
					C98.7,42.2,92.9,17,79,7.8z"/>
				<path class="st6" d="M46.4,79.4c-0.2,0-0.3,0.1-0.5,0.1c0,0,0,0,0,0C46.1,79.5,46.3,79.4,46.4,79.4z"/>
				<path class="st6" d="M13.7,53.7c-0.2,0-0.3,0-0.5,0l0.1,0C13.5,53.6,13.6,53.6,13.7,53.7z"/>
			</g>
			<path d="M80.8,44.5c-0.5-0.9-0.2-2,0.7-2.5c0.9-0.5,2-0.2,2.5,0.7c0.5,0.9,0.2,2-0.7,2.5C82.4,45.7,81.3,45.4,80.8,44.5z"/>
			<path d="M34.6,21.4c-0.5-0.9-0.2-2,0.7-2.5c0.9-0.5,2-0.2,2.5,0.7c0.5,0.9,0.2,2-0.7,2.5C36.2,22.6,35.1,22.3,34.6,21.4z"/>
			<g>
				<path d="M64.1,24.8c-6.2-3.5-11.1-6.6-11-6.9c0.2-0.3,5.3,2.3,11.5,5.8c6.2,3.5,11.1,6.6,11,6.9C75.5,30.8,70.3,28.3,64.1,24.8z
					"/>
				<path d="M66.7,20.8c-3.3-1.9-5.9-3.6-5.8-3.9c0.2-0.3,3,1,6.4,2.9c3.3,1.9,5.9,3.6,5.8,3.9C72.9,23.9,70.1,22.7,66.7,20.8z"/>
				<path d="M69.5,17.1c-2.1-1.2-3.6-2.4-3.5-2.6c0.2-0.3,2,0.4,4.1,1.6c2.1,1.2,3.6,2.4,3.5,2.7C73.4,18.9,71.6,18.2,69.5,17.1z"/>
			</g>
		</g>
		<path class="st6" d="M77.2,67.3c-1.5,7.3-6.5,12.4-11.3,11.4c-4.8-1-7.5-7.7-6-15c1.5-7.3,6.5-12.4,11.3-11.4
			C75.9,53.3,78.6,60,77.2,67.3z"/>
		<path class="st6" d="M32.4,45.5c-6.1,4.2-13.2,4.3-16,0.1c-2.7-4.1-0.1-10.8,6-15c6.1-4.2,13.2-4.3,16-0.1
			C41.2,34.6,38.5,41.3,32.4,45.5z"/>
	</g>
	<g>
		<path d="M35.5,58.8c0,0.8-0.5,1.4-1.3,1.5c-0.7,0-1.4-0.5-1.4-1.3c0-0.8,0.5-1.4,1.3-1.5C34.8,57.5,35.4,58.1,35.5,58.8z"/>
		<path d="M40.6,57.1c0,0.8-0.5,1.4-1.3,1.5c-0.7,0-1.4-0.5-1.4-1.3c0-0.8,0.5-1.4,1.3-1.5C39.9,55.8,40.5,56.4,40.6,57.1z"/>
		<path d="M40.6,63c0,0.8-0.5,1.4-1.3,1.5c-0.7,0-1.4-0.5-1.4-1.3c0-0.8,0.5-1.4,1.3-1.5C39.9,61.7,40.5,62.2,40.6,63z"/>
		<path d="M45,59.4c0,0.8-0.5,1.4-1.3,1.5c-0.7,0-1.4-0.5-1.4-1.3c0-0.8,0.5-1.4,1.3-1.5C44.3,58.1,44.9,58.6,45,59.4z"/>
		<path d="M45.5,64.3c0,0.8-0.5,1.4-1.3,1.5c-0.7,0-1.4-0.5-1.4-1.3c0-0.8,0.5-1.4,1.3-1.5C44.8,62.9,45.4,63.5,45.5,64.3z"/>
		<path d="M49.7,63.4c0,0.8-0.5,1.4-1.3,1.5c-0.7,0-1.4-0.5-1.4-1.3c0-0.8,0.5-1.4,1.3-1.5C49,62.1,49.6,62.6,49.7,63.4z"/>
		<path d="M47.6,67.7c0,0.8-0.5,1.4-1.3,1.5c-0.7,0-1.4-0.5-1.4-1.3c0-0.8,0.5-1.4,1.3-1.5C46.9,66.3,47.6,66.9,47.6,67.7z"/>
	</g>
</g>
</svg>
