<?xml version="1.0" encoding="utf-8"?>
<!-- Generator: Adobe Illustrator 22.0.1, SVG Export Plug-In . SVG Version: 6.00 Build 0)  -->
<svg version="1.1" id="圖層_1" xmlns="http://www.w3.org/2000/svg" xmlns:xlink="http://www.w3.org/1999/xlink" x="0px" y="0px"
	 viewBox="0 0 102.5 124.1" style="enable-background:new 0 0 102.5 124.1;" xml:space="preserve">
<style type="text/css">
	.st0{fill:#CCCCCC;}
	.st1{fill:#3BB5EA;}
	.st2{fill:#70B279;}
	.st3{fill:#F5B19B;}
	.st4{fill:#C1272D;}
	.st5{fill:#CE424D;}
	.st6{fill:none;stroke:#000000;stroke-miterlimit:10;}
	.st7{stroke:#000000;stroke-miterlimit:10;}
</style>
<path class="st0" d="M85.4,7.6c-2.8-2-8.8-4.9-12.4-6c-4.5-1.3-9.6-1.8-14.9-1.5C45.8,0.9,33.6,5.9,24.6,13.8
	c-11,9.7-17.2,24-17.6,33.2c-0.2,3.8,0.6,6.6,2.3,8.4c3,3.2,6.1,3.5,8.4,3.7c0,0,0,0,0,0l0.1,0c0,0,0.1,0,0.1,0
	c0.6,0,1.1,0.1,1.6,0.2c1.1,0.2,1.9,0.6,2.9,1.9c0,0,0,0,0,0c0.2,0.5,0.4,0.9,0.5,1.4c0,0,0,0.1,0,0.1C23,62.8,23,63,23,63.2
	c0,0.1,0,0.2,0,0.2c0,0.1,0,0.3,0.1,0.5c0,0.2,0,0.4,0.1,0.5c0.1,1,0.1,2.1,0.1,3.3c0,0.9,0,1.7,0,2.7c0.1,3.3,0.6,7,0.9,9.7
	c0.1,0.8,0.2,1.6,0.3,2.2c0.1,1.1,0.3,2.1,0.4,3.1c0.6,3.8,1,6.4-1.3,9.4c-1.4,1.2-2.5,1.5-3.4,1.5c-0.9,0.1-2-0.1-3.1-0.2
	c-1.3-0.2-2.9-0.4-4.5-0.3c-1.7,0.1-3.2,0.5-4.7,1.2c0,0,0,0-0.1,0c-3.2,1.7-7.9,6.1-3.1,16.7c1.5,3.2,5.4,10.7,10.3,10.4
	c0.3,0,0.6-0.1,0.9-0.1c0.1,0,0.2-0.1,0.4-0.1c1.2-0.5,2.2-1.4,2.6-2.6c0.9-2.5-0.4-5.2-2-8.3c-0.7-1.4-2.2-4.4-2.1-5.3
	c0.2-0.2,0.3-0.4,0.8-0.4c0.7,0,1.6,0.1,2.6,0.2c1.5,0.2,3.2,0.4,5.1,0.3c2.1-0.1,4-0.7,5.9-1.6c3.7-1.6,5.6-5.3,7.5-8.9
	c1.3-2.5,2.6-5.2,4.6-7.2c2.2-2.3,6.1-4.2,10-5.1c0,0,0,0,0,0c0.5-0.1,0.9-0.2,1.4-0.2c0.1,0,0.1,0,0.2,0c0.4-0.1,0.9-0.1,1.3-0.1
	c0.5,0,0.9,0,1.4,0c0.4,0,0.7,0,1.1,0.1c0.1,0,0.1,0,0.2,0c0.3,0.1,0.6,0.2,0.9,0.3c1.4,0.6,1.8,1.5,2.6,3.2c1,2.2,2.3,5.1,6.5,6.8
	c1,0.4,2.2,0.6,3.5,0.5c8.8-0.6,23.4-13.8,29.2-30C106.9,43.9,100.5,17.5,85.4,7.6z"/>
</svg>
