<?xml version="1.0" encoding="utf-8"?>
<!-- Generator: Adobe Illustrator 22.0.1, SVG Export Plug-In . SVG Version: 6.00 Build 0)  -->
<svg version="1.1" id="圖層_1" xmlns="http://www.w3.org/2000/svg" xmlns:xlink="http://www.w3.org/1999/xlink" x="0px" y="0px"
	 viewBox="0 0 80.2 153.8" style="enable-background:new 0 0 80.2 153.8;" xml:space="preserve">
<style type="text/css">
	.st0{fill:#CCCCCC;}
	.st1{fill:#3BB5EA;}
	.st2{fill:#70B279;}
	.st3{fill:#F5B19B;}
	.st4{fill:#C1272D;}
	.st5{fill:#CE424D;}
	.st6{fill:none;stroke:#000000;stroke-miterlimit:10;}
	.st7{stroke:#000000;stroke-miterlimit:10;}
</style>
<path class="st3" d="M76.5,42.2c-0.9-0.4-2.5-0.9-5.6-1.6c-1.6-0.4-1.6-3.4-1.6-3.4c0-0.1,0-0.3,0-0.4c-0.7-10-7.1-18.4-15.8-22.2
	c0-0.1,0-0.2,0-0.3C53.5,6.2,49.6,0,44.4,0c-2.9,0-5.5,2-7.1,5.1c-1.1-0.6-2.2-0.9-3.3-0.9c-0.7,0-1.4,0.1-2,0.4
	c-2.2,0.8-3.6,2.7-4.2,5.3c-0.2,0-0.5,0-0.7,0c-1.1,0-2.2,0.3-3.2,0.9c-1.7,1-2.7,2.9-3,5.1c-1.9,0.1-3.6,0.8-4.8,2
	c-1.6,1.8-2.1,4.2-1.4,6.8c-2.2,0.9-3.8,2.4-4.4,4.4c-0.7,2.3,0,4.8,1.7,6.9c-1.7,1.6-2.6,3.6-2.4,5.8c0.2,1.9,1.1,3.5,2.6,4.7
	c-1.5,2-2,4.2-1.4,6.3c0.4,1.3,1.2,2.5,2.3,3.3c-0.9,1.6-1.1,3.4-0.6,5c0.5,1.5,1.4,2.8,2.8,3.7c-0.4,1.1-0.5,2.3-0.3,3.4
	c0.3,1.5,1.1,2.8,2.3,3.8c-0.4,0.8-0.6,1.6-0.6,2.5c0,1,0.1,1.9,0.5,2.8c-1.1-0.2-2.2-0.3-3.3-0.3c-4.6,0-8.1,1.9-9.2,5
	c-0.4,1.2-0.4,2.4-0.1,3.7C1.8,87.4,0,90.2,0,93.4c0,3.2,1.8,6.1,4.6,7.9c-0.4,1.3-0.4,2.7,0,4c1,3.1,4.5,5,9.2,5
	c0.8,0,1.6-0.1,2.5-0.2c-2.3,9.7-2.5,20.2,3.1,30.4c4.6,8.4,12.5,13.3,21.5,13.3c8.3,0,16-4.2,19.3-10.4c3.1-5.8,2.8-13.2-0.8-19.1
	c-3.2-5.3-8.4-8.5-14-8.5c-1,0-2,0.1-3.1,0.3c0.5-0.3,0.9-0.5,1.4-0.8c0.1-0.1,0.2-0.1,0.3-0.2c0.2-0.1,0.3-0.2,0.5-0.3
	c0.6-0.3,1.3-0.7,2-1.1c0,0,0,0,0,0c1.9-1,3.9-2.2,6.2-3.6c6.2-3.8,10.2-10.1,11-17.4c0.9-7.5-1.7-15.1-7.1-21.1c0,0,0,0,0,0
	c0,0-0.1-0.1-0.1-0.1c-0.1-0.1-0.2-0.3-0.3-0.4c-0.3-0.4-0.7-0.7-1-1c0,0,0,0,0,0c-0.2-0.2-0.3-0.3-0.4-0.5
	c-0.1-0.1-0.1-0.2-0.2-0.3c-0.1-0.2-0.3-0.3-0.4-0.5c0,0,0,0,0-0.1c-0.3-0.5-0.5-1-0.6-1.5c0,0,0,0,0-0.1c-0.2-0.9-0.3-1.9,0.1-2.9
	c0.4-1.3,1.5-2.1,2.2-2.5c4.2-1.7,7.8-2.9,9.9-3.1c1.8-0.2,3.4-0.3,4.9-0.3c2.9,0,4.3,0.3,4.3,0.3c0,0,0.1,0,0.1,0
	c0.1,0,0.1,0,0.2,0c0.2,0,0.4,0.1,0.6,0.1c0.1,0,0.3,0,0.4,0h0c0.1,0,0.1,0,0.2,0c3.9-0.6,3.9-6.5,3.9-8.5
	C80.2,44.5,78.1,42.7,76.5,42.2z"/>
</svg>
