<?xml version="1.0" encoding="utf-8"?>
<!-- Generator: Adobe Illustrator 22.0.1, SVG Export Plug-In . SVG Version: 6.00 Build 0)  -->
<svg version="1.1" id="圖層_1" xmlns="http://www.w3.org/2000/svg" xmlns:xlink="http://www.w3.org/1999/xlink" x="0px" y="0px"
	 viewBox="0 0 74.9 148.2" style="enable-background:new 0 0 74.9 148.2;" xml:space="preserve">
<style type="text/css">
	.st0{fill:#CCCCCC;}
	.st1{fill:#3BB5EA;}
	.st2{fill:#70B279;}
	.st3{fill:#F5B19B;}
	.st4{fill:#C1272D;}
	.st5{fill:#CE424D;}
	.st6{fill:none;stroke:#000000;stroke-miterlimit:10;}
	.st7{stroke:#000000;stroke-miterlimit:10;}
</style>
<g>
	<g>
		<path class="st6" d="M72.8,52.8C72.8,52.8,72.9,52.8,72.8,52.8L72.8,52.8C72.8,52.8,72.8,52.8,72.8,52.8z M71.2,47.6
			c0-2.8,0.6-5.1,1.4-5.1c0,0,0,0,0,0c-0.4-0.2-1.8-0.7-5.3-1.6c-4.4-1-4.1-6.8-4.1-6.8c-0.7-9.7-7.5-17.8-16.5-20.3
			c-1.9,2.8-7.3,3-9.8,0.6c-1.2,1.5-3.5,2.4-5.5,2.1c0.6,2.7-2.6,5.3-5.4,5.3c0,2.1-1.9,4.4-4,5.3c0.7,2.1-0.2,5.1-1.9,6.6
			c2.1,1.9,2.3,6.8,0.1,8.5c2.4,1.5,3.5,6.3,1.6,8.3c2.2,1.3,3.3,5.1,2.3,7.4c4.1-0.2,5.8,6.8,2.9,9.2c3.2,1.2,3.2,7.7,0.5,9.8
			c0.4,0.1,0.9,0.2,1.4,0.4c3.8,1.3,1.6,9.2-2,9.7c1,1.3,1.6,2.5,1.6,3.6c0,3.5-5.7,8.5-10.2,11.2v0c-3.5,10.8-5.3,22.9,1,34.4
			c9.2,16.8,29.6,13,34.9,2.9c5.7-10.7-3.4-25.8-15.6-22.2c-2.2,0.7-3.7,1.6-4.8,2.7c-1.7,1.4-2.8,3.5-2.8,5.8
			c0,4.1,3.3,7.5,7.5,7.5s7.5-3.3,7.5-7.5c0-1-0.2-2-0.6-2.8c4.2,2.3,6,9.8,0.5,13.4c-6.8,4.3-18.8,2.1-18.5-10.5
			c0.2-9,3.4-11.3,10.3-15c0.4-0.2,0.7-0.4,1.1-0.6c0.5-0.3,1.1-0.6,1.6-0.9c1-0.5,2-1.1,3.1-1.7c0.5-0.3,1-0.6,1.6-0.9
			c0.4-0.2,0.7-0.4,1.1-0.6c0.6-0.3,1.2-0.7,1.8-1.1c1.5-0.9,2.9-2,4.1-3.3c0.1-0.1,0.1-0.2,0.2-0.2c0.5-0.6,1-1.1,1.4-1.8
			c0.2-0.3,0.4-0.6,0.6-0.9c0.1-0.1,0.2-0.2,0.2-0.4c0.2-0.3,0.4-0.6,0.5-0.9c0,0,0,0,0,0c0.2-0.4,0.4-0.7,0.6-1.1
			c0-0.1,0-0.1,0.1-0.2c0.2-0.3,0.3-0.7,0.4-1c0.2-0.4,0.3-0.8,0.4-1.2c0.1-0.4,0.3-0.8,0.3-1.2c0.1-0.4,0.2-0.8,0.3-1.1
			c0.1-0.5,0.2-0.9,0.2-1.4c0-0.4,0.1-0.7,0.1-1.1c0-0.1,0-0.1,0-0.2c0-0.1,0-0.1,0-0.2c0.1-1.1,0-2.3-0.1-3.5c0-0.2,0-0.4-0.1-0.6
			c0-0.1,0-0.2,0-0.2c0,0,0,0,0,0c0-0.1,0-0.2,0-0.4c0-0.2-0.1-0.5-0.1-0.7c0-0.1,0-0.3-0.1-0.4c-0.1-0.3-0.1-0.7-0.2-1
			c-0.1-0.3-0.2-0.6-0.3-0.9c-0.1-0.3-0.2-0.5-0.3-0.8c-0.1-0.3-0.2-0.5-0.3-0.8c-0.1-0.3-0.3-0.7-0.4-1c-0.4-1-0.9-2-1.5-2.9
			c-0.1-0.2-0.2-0.3-0.3-0.5c0,0,0,0,0,0c-0.1-0.2-0.2-0.3-0.3-0.5c0,0,0-0.1-0.1-0.1c-0.1-0.2-0.2-0.3-0.4-0.5
			c-0.3-0.5-0.7-0.9-1.1-1.4c-0.3-0.3-0.5-0.6-0.8-0.9c-0.2-0.2-0.4-0.5-0.6-0.7c-0.2-0.2-0.4-0.5-0.7-0.7c-0.1-0.1-0.3-0.3-0.4-0.4
			c0,0,0,0-0.1-0.1c0,0-0.1-0.1-0.1-0.1c0,0,0,0,0,0c-0.1-0.1-0.1-0.1-0.1-0.2c-0.1-0.2-0.3-0.3-0.4-0.5c0,0-0.1-0.1-0.1-0.1
			c-0.1-0.1-0.2-0.3-0.3-0.4c-0.1-0.1-0.1-0.2-0.2-0.4c-0.4-0.7-0.8-1.5-1-2.3c-0.4-1.6-0.4-3.3,0.2-4.9c0.8-2.3,2.7-3.7,3.8-4.4
			c2.6-1.1,7.7-3.1,11-3.4c6.2-0.7,9.5-0.1,10.3,0.1C72,52.5,71.2,50.3,71.2,47.6z"/>
		<path class="st6" d="M26.1,21.8c0,2.1-1.9,4.4-4,5.3c-0.3-1-0.9-1.7-2-2.1c0,0,0,0,0,0c-1.2-0.4-2.4-0.6-3.5-0.6h0
			c-1.9-2.7-2.4-5.6-1-7.1c1.3-1.3,3.7-1.3,6.2-0.1v0c1,0.5,1.9,1.1,2.8,1.9c0.2,0.1,0.3,0.3,0.5,0.4C25.8,20.2,26.1,21,26.1,21.8z"
			/>
		<path class="st6" d="M20.3,33.7c-0.6-0.6-1.4-0.9-2.3-0.8c-0.1,0-0.2,0-0.3,0c-1,0.1-1.9,0.3-2.7,0.6c0,0,0,0,0,0
			c-3.1-1.6-5-4.2-4.3-6.3c0.6-1.9,3-2.9,6.1-2.8h0c1.1,0,2.3,0.2,3.5,0.6c0,0,0,0,0,0c1,0.3,1.7,1.1,2,2.1
			C22.8,29.2,21.9,32.2,20.3,33.7z"/>
		<path class="st6" d="M20.3,42.2c-0.7-0.5-1.5-0.6-2.4-0.4c0,0,0,0,0,0c-0.8,0.2-1.5,0.5-2.2,0.8c-3.2-0.4-5.5-2-5.7-4.1
			c-0.2-2.1,1.9-4.1,5-5.1c0,0,0,0,0,0c0.8-0.3,1.8-0.5,2.7-0.6c0.1,0,0.2,0,0.3,0c0.9-0.1,1.7,0.2,2.3,0.8
			C22.4,35.6,22.6,40.6,20.3,42.2z"/>
		<path class="st6" d="M21.9,50.5c-0.6-0.4-1.4-0.6-2.2-0.4c-0.1,0-0.1,0-0.2,0c-1.4,0.4-2.6,1-3.6,1.6c0,0,0,0,0,0
			c-2.5-0.2-4.4-1.2-4.8-2.9c-0.6-2.2,1.3-4.7,4.6-6.3c0.7-0.3,1.4-0.6,2.2-0.8c0,0,0,0,0,0c0.9-0.3,1.7-0.1,2.4,0.4
			C22.8,43.8,23.9,48.5,21.9,50.5z"/>
		<path class="st6" d="M24.2,58c-0.2,0-0.4,0-0.5,0.1c-0.4,0.1-0.9,0.2-1.3,0.3c-1.7,0.5-3.1,1.1-4.3,1.9c0,0,0,0,0,0
			c-2.7-0.1-4.8-1.2-5.3-2.9c-0.5-1.8,0.8-3.9,3.2-5.5c0,0,0,0,0,0c1-0.7,2.3-1.3,3.6-1.6c0.1,0,0.1,0,0.2,0c0.8-0.2,1.5,0,2.2,0.4
			C24.1,51.8,25.2,55.6,24.2,58z"/>
		<path class="st6" d="M27.2,67.1c-0.3-0.1-0.6-0.2-1-0.2c-0.2,0-0.5,0-0.7,0c-2,0-3.8,0.4-5.3,1.1c0,0,0,0,0,0
			c-2.6-0.4-4.5-1.6-4.9-3.3c-0.3-1.6,0.8-3.2,2.7-4.5c0,0,0,0,0,0c1.2-0.8,2.7-1.5,4.3-1.9c0.4-0.1,0.9-0.2,1.3-0.3
			c0.2,0,0.4-0.1,0.5-0.1C28.3,57.8,30.1,64.7,27.2,67.1z"/>
		<path class="st6" d="M27.7,76.9c-0.3-0.1-0.6-0.1-0.9-0.1c-1.5-0.2-3-0.1-4.2,0.3h0c-3.3-0.9-5.6-3-5.5-5.2
			c0.1-1.6,1.3-2.9,3.1-3.8c0,0,0,0,0,0c1.4-0.7,3.3-1.1,5.3-1.1c0.2,0,0.5,0,0.7,0c0.3,0,0.7,0.1,1,0.2
			C30.3,68.4,30.4,74.9,27.7,76.9z"/>
		<path class="st6" d="M27.1,86.9c-0.5-0.7-1.2-1.5-2-2.2c-1.6-1.6-3.6-3.1-5.5-4.3c0-0.3,0.1-0.7,0.2-1c0.4-1.2,1.4-2,2.8-2.5h0
			c1.2-0.4,2.7-0.5,4.2-0.3c0.3,0,0.6,0.1,0.9,0.1c0.4,0.1,0.9,0.2,1.4,0.4C32.9,78.5,30.6,86.4,27.1,86.9z"/>
		<path class="st6" d="M72.7,52.8c-0.8-0.2-4.1-0.8-10.3-0.1c-3.3,0.4-8.4,2.3-11,3.4c-1.1,0.7-3,2.1-3.8,4.4
			c-0.6,1.7-0.6,3.4-0.2,4.9c0.2,0.8,0.5,1.6,1,2.3c0.1,0.1,0.1,0.2,0.2,0.4c0.1,0.1,0.2,0.3,0.3,0.4c0,0,0.1,0.1,0.1,0.1
			c0.1,0.1,0.1,0.2,0.2,0.2c0.1,0.1,0.1,0.2,0.2,0.2c0,0,0.1,0.1,0.1,0.1c0,0,0,0,0,0c0,0,0,0,0,0c0,0,0,0,0,0c0,0,0.1,0.1,0.1,0.1
			c0,0,0,0,0.1,0.1c0.1,0.1,0.3,0.3,0.4,0.4c0.2,0.2,0.4,0.4,0.7,0.7c0.2,0.2,0.4,0.4,0.6,0.7c0.3,0.3,0.5,0.6,0.8,0.9
			c0.4,0.5,0.8,0.9,1.1,1.4c0.1,0.2,0.3,0.3,0.4,0.5c0,0,0.1,0.1,0.1,0.1c0.1,0.2,0.2,0.3,0.3,0.5c0,0,0,0,0,0
			c0.1,0.2,0.2,0.3,0.3,0.5c0.6,1,1.1,2,1.5,2.9c0.2,0.3,0.3,0.7,0.4,1c0.1,0.3,0.2,0.6,0.3,0.8c0.1,0.3,0.2,0.5,0.3,0.8
			c0.1,0.3,0.2,0.6,0.3,0.9c0.1,0.3,0.2,0.7,0.2,1c0,0.1,0.1,0.3,0.1,0.4c0,0.2,0.1,0.5,0.1,0.7c0,0.1,0,0.2,0,0.4c0,0,0,0,0,0
			c0,0.1,0,0.2,0,0.2c0,0.2,0.1,0.4,0.1,0.6c0.1,1.2,0.2,2.3,0.1,3.5c0,0.1,0,0.1,0,0.2c0,0.1,0,0.1,0,0.2c0,0.4,0,0.7-0.1,1.1
			c-0.1,0.5-0.1,0.9-0.2,1.4c-0.1,0.4-0.2,0.8-0.3,1.1c-0.1,0.4-0.2,0.8-0.3,1.2c-0.1,0.4-0.3,0.8-0.4,1.2c-0.1,0.3-0.3,0.7-0.4,1
			c0,0.1,0,0.1-0.1,0.2c-0.2,0.4-0.4,0.8-0.6,1.1c0,0,0,0,0,0c-0.2,0.3-0.3,0.6-0.5,0.9c-0.1,0.1-0.2,0.2-0.2,0.4
			c-0.2,0.3-0.4,0.6-0.6,0.9c-0.4,0.6-0.9,1.2-1.4,1.8c-0.1,0.1-0.1,0.2-0.2,0.2c-1.2,1.3-2.6,2.4-4.1,3.3c-0.6,0.4-1.2,0.7-1.8,1.1
			c-0.4,0.2-0.8,0.4-1.1,0.6c-0.5,0.3-1.1,0.6-1.6,0.9c-1.1,0.6-2.1,1.1-3.1,1.7c-0.6,0.3-1.1,0.6-1.6,0.9c-0.4,0.2-0.7,0.4-1.1,0.6
			c-6.9,3.7-10.1,6.1-10.3,15c-0.3,12.6,11.8,14.8,18.5,10.5c5.5-3.5,3.7-11.1-0.5-13.4c0.4,0.9,0.6,1.8,0.6,2.8
			c0,4.1-3.3,7.5-7.5,7.5s-7.5-3.3-7.5-7.5c0-2.3,1.1-4.4,2.8-5.8c1-1.1,2.6-2.1,4.8-2.7c12.2-3.7,21.3,11.5,15.6,22.2
			c-5.3,10-25.7,13.9-34.9-2.9c-6.3-11.5-4.6-23.6-1-34.4v0c4.4-2.7,10.2-7.7,10.2-11.2c0-1.1-0.6-2.4-1.6-3.6
			c3.6-0.5,5.8-8.4,2-9.7c-0.5-0.1-0.9-0.3-1.4-0.4c2.7-2,2.7-8.5-0.5-9.8c2.9-2.4,1.2-9.4-2.9-9.2c1-2.3-0.1-6.1-2.3-7.4
			c1.9-2,0.8-6.8-1.6-8.3c2.3-1.7,2.1-6.6-0.1-8.5c1.7-1.5,2.6-4.5,1.9-6.6c2.1-0.8,4-3.2,4-5.3c2.7,0,6-2.7,5.4-5.3
			c1.9,0.3,4.3-0.6,5.5-2.1c2.4,2.4,7.8,2.2,9.8-0.6c9.1,2.6,15.8,10.6,16.5,20.3c0,0-0.3,5.8,4.1,6.8c3.6,0.8,4.9,1.4,5.3,1.6
			c0,0,0,0,0,0c-0.8,0-1.4,2.3-1.4,5.1C71.2,50.3,72,52.5,72.7,52.8z"/>
		<path class="st6" d="M72.9,52.8L72.9,52.8C72.9,52.8,72.8,52.8,72.9,52.8C72.8,52.8,72.8,52.8,72.9,52.8z"/>
		<path class="st6" d="M57.7,88.5c0,0.1,0,0.1,0,0.2c0,0.1,0,0.1,0,0.2c0,0.4,0,0.7-0.1,1.1c-0.1,0.5-0.1,0.9-0.2,1.4
			c-0.1,0.4-0.2,0.8-0.3,1.1c-0.1,0.4-0.2,0.8-0.3,1.2c-0.1,0.4-0.3,0.8-0.4,1.2c-0.1,0.3-0.3,0.7-0.4,1c0,0.1,0,0.1-0.1,0.2
			c-0.2,0.4-0.4,0.8-0.6,1.1c0,0,0,0,0,0c-0.2,0.3-0.3,0.6-0.5,0.9c-0.1,0.1-0.2,0.2-0.2,0.4c-0.2,0.3-0.4,0.6-0.6,0.9
			c-0.4,0.6-0.9,1.2-1.4,1.8c-0.1,0.1-0.1,0.2-0.2,0.2c-1.2,1.3-2.6,2.4-4.1,3.3c-0.6,0.4-1.2,0.7-1.8,1.1c-0.4,0.2-0.8,0.4-1.1,0.6
			c-0.5,0.3-1.1,0.6-1.6,0.9c-1.1,0.6-2.1,1.1-3.1,1.7c-0.6,0.3-1.1,0.6-1.6,0.9c-0.4,0.2-0.7,0.4-1.1,0.6
			c-4.2-4.7-8.8-13.6-7.9-21.8c0.8-7.1,5.5-10.7,9.7-14c0.7-0.6,1.5-1.2,2.2-1.8h0c1.8-1.6,3.3-3.2,4.1-5.2c0.4-1,0.9-1.7,1.5-2.1
			c0.2,0.8,0.5,1.6,1,2.3c0.1,0.1,0.1,0.2,0.2,0.4c0.1,0.1,0.2,0.3,0.3,0.4c0,0,0.1,0.1,0.1,0.1c0,0.1,0.1,0.2,0.2,0.2
			c0.1,0.1,0.1,0.2,0.2,0.2c0,0,0.1,0.1,0.1,0.1c0,0,0,0,0,0c0,0,0,0,0,0c0,0,0,0,0,0c0,0,0.1,0.1,0.1,0.1c0,0,0,0,0.1,0.1
			c0.1,0.1,0.3,0.3,0.4,0.4c0.2,0.2,0.4,0.4,0.7,0.7c0.2,0.2,0.4,0.4,0.6,0.7c0.3,0.3,0.5,0.6,0.8,0.9c0.4,0.5,0.8,0.9,1.1,1.4
			c0.1,0.2,0.3,0.3,0.4,0.5c0,0,0.1,0.1,0.1,0.1c0.1,0.2,0.2,0.3,0.3,0.5c0,0,0,0,0,0c0.1,0.2,0.2,0.3,0.3,0.5c0.6,1,1.1,2,1.5,2.9
			c0.2,0.3,0.3,0.7,0.4,1c0.1,0.3,0.2,0.6,0.3,0.8c0.1,0.3,0.2,0.5,0.3,0.8c0.1,0.3,0.2,0.6,0.3,0.9c0.1,0.3,0.2,0.7,0.2,1
			c0,0.1,0.1,0.3,0.1,0.4c0,0.2,0.1,0.5,0.1,0.7c0,0.1,0,0.2,0,0.4c0,0,0,0,0,0c0,0.1,0,0.2,0,0.2c0,0.2,0.1,0.4,0.1,0.6
			C57.7,86.2,57.7,87.4,57.7,88.5z"/>
		<path class="st6" d="M27.1,86.9c-0.5-0.7-1.2-1.5-2-2.2c-1.6-1.6-3.6-3.1-5.5-4.3c-1.8-1.2-3.6-2.1-4.7-2.5
			c-4.1-1.4-9.1-0.4-10,2.1c-0.5,1.4,0.1,2.9,1.4,4.3c-3.4,0.7-5.9,3.2-5.9,6.2c0,3.1,2.7,5.6,6.3,6.2c-1.5,1.4-2.2,3.1-1.8,4.6
			c0.8,2.5,5.8,3.5,10,2.1c0.9-0.3,2.2-0.9,3.5-1.8v0c4.4-2.7,10.2-7.7,10.2-11.2C28.6,89.4,28,88.2,27.1,86.9z M19.6,98.6
			L19.6,98.6c-0.8,0.5-1.6,0.8-2.1,1c-3,1-6.7,0.3-7.3-1.5c-0.4-1.1,0.2-2.3,1.3-3.4c-2.6-0.4-4.6-2.3-4.6-4.6c0-2.2,1.8-4,4.3-4.5
			c-0.9-1-1.4-2.1-1-3.1c0.6-1.8,4.3-2.5,7.3-1.5c0.7,0.2,1.6,0.7,2.6,1.3c1.5,0.9,3.3,2.2,4.7,3.5c0.4,0.3,0.7,0.7,1,1
			c1,1.2,1.7,2.3,1.7,3.4C27.5,92.8,22.9,96.7,19.6,98.6z"/>
		<path class="st6" d="M27.5,90.1c0,2.7-4.6,6.5-7.9,8.5v0c-0.8,0.5-1.6,0.8-2.1,1c-3,1-6.7,0.3-7.3-1.5c-0.4-1.1,0.2-2.3,1.3-3.4
			c-2.6-0.4-4.6-2.3-4.6-4.6c0-2.2,1.8-4,4.3-4.5c-0.9-1-1.4-2.1-1-3.1c0.6-1.8,4.3-2.5,7.3-1.5c0.7,0.2,1.6,0.7,2.6,1.3
			c1.5,0.9,3.3,2.2,4.7,3.5c0.4,0.3,0.7,0.7,1,1C26.8,87.9,27.5,89.1,27.5,90.1z"/>
		<path class="st6" d="M74.1,47.6c0,2.8-0.4,5.2-1.2,5.2c0,0,0,0,0,0c0,0-0.1,0-0.1,0c-0.7-0.3-1.5-2.5-1.5-5.1
			c0-2.8,0.6-5.1,1.4-5.1c0,0,0,0,0,0l0,0C73.4,42.6,74.1,44.9,74.1,47.6z"/>
		<path d="M42,33.8c0,0.8,0.6,1.4,1.4,1.4c0.8,0,1.4-0.6,1.4-1.4c0-0.8-0.6-1.4-1.4-1.4C42.6,32.3,42,33,42,33.8z"/>
		<path d="M48.1,80.7c0,1,0.8,1.8,1.8,1.8c1,0,1.8-0.8,1.8-1.8c0-1-0.8-1.8-1.8-1.8C48.9,79,48.1,79.8,48.1,80.7z"/>
		<path d="M41.8,72.8c0.8,0.2,1.4,0.9,1.4,1.7c0,1-0.8,1.8-1.8,1.8c-1,0-1.7-0.8-1.8-1.7C40.4,73.9,41.1,73.4,41.8,72.8z"/>
		<path d="M51.3,71.2c-0.3,0.3-0.7,0.5-1.2,0.5c-1,0-1.8-0.8-1.8-1.8c0-0.5,0.2-1,0.6-1.3l0,0c0.1,0.2,0.2,0.3,0.4,0.5
			c0,0.1,0.1,0.1,0.1,0.2c0,0,0,0,0,0c0,0,0.1,0.1,0.1,0.1c0,0,0,0,0.1,0.1c0.1,0.1,0.3,0.3,0.4,0.4c0.2,0.2,0.4,0.4,0.7,0.7
			C50.9,70.8,51.1,71,51.3,71.2z"/>
		<path d="M33.4,84.1c0,1,0.8,1.8,1.8,1.8c1,0,1.8-0.8,1.8-1.8c0-1-0.8-1.8-1.8-1.8C34.2,82.4,33.4,83.2,33.4,84.1z"/>
		<circle cx="43.6" cy="90.4" r="1.8"/>
		<path d="M35,98.7c0,1,0.8,1.8,1.8,1.8c1,0,1.8-0.8,1.8-1.8c0-1-0.8-1.8-1.8-1.8C35.8,97,35,97.8,35,98.7z"/>
		<path d="M53.2,89.8c0,1,0.8,1.8,1.8,1.8c1,0,1.8-0.8,1.8-1.8c0-1-0.8-1.8-1.8-1.8C54,88,53.2,88.8,53.2,89.8z"/>
		<path d="M46.8,100.1c0,1,0.8,1.8,1.8,1.8c1,0,1.8-0.8,1.8-1.8c0-1-0.8-1.8-1.8-1.8C47.6,98.4,46.8,99.2,46.8,100.1z"/>
		<path d="M43.6,107.3c-1.1,0.6-2.1,1.1-3.1,1.7c-0.2-0.3-0.3-0.6-0.3-1c0-1,0.8-1.8,1.8-1.8C42.8,106.1,43.4,106.6,43.6,107.3z"/>
		<path class="st6" d="M36.3,125.2c0,1.8,1.4,3.2,3.2,3.2c1.8,0,3.2-1.4,3.2-3.2c0-1.8-1.4-3.2-3.2-3.2
			C37.8,122,36.3,123.5,36.3,125.2z"/>
	</g>
	<path class="st6" d="M47.4,11.5c0,0.9-0.3,1.7-0.7,2.3c-1.9,2.8-7.3,3-9.8,0.6c0.3-0.4,0.5-0.8,0.6-1.3c0.2-0.6,0.1-1.2-0.1-1.8
		c-0.4-1.1-0.9-2.1-1.5-3c0.7-4.5,3-7.8,5.6-7.8C44.8,0.5,47.4,5.4,47.4,11.5z"/>
	<path class="st6" d="M37.6,13.1c-0.1,0.4-0.3,0.9-0.6,1.3c-1.2,1.5-3.5,2.4-5.5,2.1h0c-0.1-0.3-0.2-0.6-0.4-1
		c-0.1-0.2-0.2-0.3-0.3-0.5c-0.8-1.2-1.7-2.2-2.6-2.9c-0.7-3.5,0.1-6.5,2.1-7.2c1.8-0.6,4,0.8,5.7,3.4c0.6,0.9,1.1,1.9,1.5,3
		C37.7,11.9,37.7,12.6,37.6,13.1z"/>
	<path class="st6" d="M26.1,21.8c0-0.8-0.3-1.6-1-2.3c-0.2-0.1-0.3-0.3-0.5-0.4c-0.9-0.8-1.9-1.4-2.8-1.9v0c-1-2.9-0.7-5.6,0.9-6.6
		c1.4-0.8,3.5-0.2,5.4,1.4c0.9,0.8,1.8,1.8,2.6,2.9c0.1,0.2,0.2,0.3,0.3,0.5c0.2,0.3,0.3,0.6,0.4,1h0C32.1,19.2,28.9,21.8,26.1,21.8
		z"/>
</g>
</svg>
