<?xml version="1.0" encoding="utf-8"?>
<!-- Generator: Adobe Illustrator 22.0.1, SVG Export Plug-In . SVG Version: 6.00 Build 0)  -->
<svg version="1.1" id="圖層_1" xmlns="http://www.w3.org/2000/svg" xmlns:xlink="http://www.w3.org/1999/xlink" x="0px" y="0px"
	 viewBox="0 0 146.2 112.8" style="enable-background:new 0 0 146.2 112.8;" xml:space="preserve">
<style type="text/css">
	.st0{fill:#CCCCCC;}
	.st1{fill:#3BB5EA;}
	.st2{fill:#70B279;}
	.st3{fill:#F5B19B;}
	.st4{fill:#C1272D;}
	.st5{fill:#CE424D;}
	.st6{fill:none;stroke:#000000;stroke-miterlimit:10;}
	.st7{stroke:#000000;stroke-miterlimit:10;}
</style>
<path class="st2" d="M128.6,4.2C122.6,1.3,117.7,0,112.9,0c-1.8,0-3.6,0.2-5.4,0.6c-12.7,2.7-21.5,14-21.5,26.7
	c-1.9-0.6-3.8-1.1-5.7-1.4c0,0-0.1,0-0.1,0c-0.1,0-0.3,0-0.4-0.1c-0.2,0-0.3-0.1-0.5-0.1c-0.4-0.1-0.8-0.1-1.2-0.2
	c-0.2,0-0.4-0.1-0.6-0.1c-0.3,0-0.6-0.1-1-0.1c-0.3,0-0.6-0.1-0.9-0.1c-0.2,0-0.4,0-0.6-0.1c-0.4,0-0.8-0.1-1.3-0.1
	c-0.1,0-0.2,0-0.2,0c0,0-0.1,0-0.1,0c-1.6-0.1-3-0.1-4.3-0.1c-4.8,0-9.7,0.5-14.2,1.4c0,0-0.1,0-0.1,0c0,0,0,0-0.1,0
	c-2.3,0.5-4.4,1-6.4,1.7c-10.5,3.6-38.2,13.2-38,35.6c-0.2,0.4-0.6,1.1-0.9,1.5c-1.7,2.9-3.9,6.4-2.7,10c0.7,1.9,1.8,3.6,3.2,5
	c-1.7,0-3.3,0.4-4.8,1.2C0.5,83.9-1.4,90.1,1.1,95c0,0,0,0.1,0.1,0.1c0,0,0.1,0.1,0.1,0.1c1.1,2,2.8,3.6,4.8,4.8
	c0.1,1.4,0.4,2.7,1.1,4c0,0,0.1,0.2,0.1,0.2c3.1,5.8,11.5,8.4,17.9,8.4c2.3,0,4.2-0.3,5.6-1c3-1.4,12.4-11.2,17.1-23.2
	c4.3-0.2,8.6-0.5,12.4-1.1c0,0.1,0,0.2,0.1,0.3c-0.1,0.1-0.2,0.3-0.3,0.4c-3.4,4.4-2.7,10.8,1.7,14.3c0,0,0.1,0.1,0.1,0.1
	c0,0,0.1,0,0.1,0.1c1.6,1.2,3.6,2,5.9,2.4c0.6,1.1,1.5,2.1,2.5,2.9c0.1,0.1,0.1,0.1,0.2,0.2c2.3,1.7,5.4,2.6,9,2.6c0,0,0,0,0,0
	c6,0,12.6-2.3,15.4-5.5c2.4-2.7,7.5-17.2,6.1-30.9c4.6-3.5,6.8-7.5,6.6-12c-0.1-1.8-0.9-3.5-2.2-5.2c1-0.8,1.9-1.7,2.9-2.6
	c1.6,0.3,3.2,0.4,4.8,0.4c0,0,0,0,0,0c1.9,0,3.7-0.2,5.5-0.6c7.2-1.5,14.5-5.4,19.6-10.3c6.3-6.1,8.9-13.4,7.4-20.6
	C144.2,15.7,135.8,7.6,128.6,4.2z"/>
</svg>
