<?xml version="1.0" encoding="utf-8"?>
<!-- Generator: Adobe Illustrator 22.0.1, SVG Export Plug-In . SVG Version: 6.00 Build 0)  -->
<svg version="1.1" id="圖層_1" xmlns="http://www.w3.org/2000/svg" xmlns:xlink="http://www.w3.org/1999/xlink" x="0px" y="0px"
	 viewBox="0 0 180.7 110.8" style="enable-background:new 0 0 180.7 110.8;" xml:space="preserve">
<style type="text/css">
	.st0{fill:#CCCCCC;}
	.st1{fill:#3BB5EA;}
	.st2{fill:#70B279;}
	.st3{fill:#F5B19B;}
	.st4{fill:#C1272D;}
	.st5{fill:#CE424D;}
	.st6{fill:none;stroke:#000000;stroke-miterlimit:10;}
	.st7{stroke:#000000;stroke-miterlimit:10;}
</style>
<g>
	<g>
		<g>
			<path class="st6" d="M144.8,77.5c-0.3,0.4-0.5,0.7-0.7,1c-1,1.5-2.5,2.4-2.5,2.4c-0.8,0.6-1.5,1-2.6,1.5
				c-5.5,2.2-11.2,3.9-17,5.2c-0.5,0.1-1,0.2-1.4,0.3c-0.5,0.1-1,0.2-1.4,0.3c-4.1,0.9-8.3,1.5-12.6,2c-1,0.1-1.9,0.2-2.9,0.3
				c-9.1,0.9-18.6,1.2-28.4,0.9c-2.3-0.1-4.7-0.2-7.1-0.3c-2.1-2.1-4.6-4-7.3-5.4c0,0-3.5-0.7-3.7,1.1c0,0,0,1.5,0.2,3.7
				c-0.5,0-1-0.1-1.6-0.1c-2-0.2-4.1-0.3-6.2-0.5c-0.9-0.1-1.7-0.2-2.5-0.3c0,0-0.1,0-0.1,0c-0.5,0-0.9-0.1-1.4-0.1
				c-0.2,0-0.4,0-0.5-0.1c-0.3,0-0.6-0.1-0.9-0.1c-0.2,0-0.4,0-0.6-0.1c-0.2,0-0.4,0-0.6-0.1c-0.2,0-0.4,0-0.5-0.1
				c-4.3-0.6-8.3-1.4-11.9-2.3c-0.9-0.2-1.8-0.4-2.7-0.7c-3.9-1.1-7.3-2.2-10.3-3.5c-0.7-0.3-1.4-0.6-2.1-0.9
				c-5.1-2.2-8.7-4.4-11-6.1c0,0,0-0.1,0-0.1C-3.8,30.3,29.3,0.2,61,1.1c34.3,0.9,47.9,26.7,61.4,46.5c6.3,9.3,12.2,13.9,16.6,16.3
				c-0.7,1.2-1.3,2.6-1.7,3.8c-0.3,1-0.5,2-0.5,2.9c0,1.6,0.9,2.9,2.1,3.9C140.6,76,143,76.9,144.8,77.5z"/>
			<path class="st6" d="M138.9,74.5c-0.1,0.1-0.1,0.2-0.2,0.3l-0.2,0.3c-0.5,0.7-1.2,1.2-1.4,1.4c0,0,0,0-0.1,0.1
				c-0.6,0.4-1,0.7-1.8,1.1c-14.9,5.8-31.7,8.6-52.7,8.6c0,0,0,0,0,0c-9.3,0-19.3-0.5-31.6-1.6c-22-2-34.8-8.5-40.3-12.1
				C7.7,54.4,11.9,37.6,22.5,25C32.1,13.4,46.3,6.5,60.3,6.5c0.4,0,0.8,0,1.1,0c27.9,0.7,40.4,19.4,52.4,37.5
				c1.2,1.8,2.5,3.8,3.7,5.6c7.6,11.1,14.6,15.9,19.7,18c-0.3,1-0.5,2-0.5,2.9C136.8,72.2,137.7,73.5,138.9,74.5z"/>
			<path class="st6" d="M4.2,80.4c0,0.8-0.7,1.5-1.5,1.5c-0.2,0-0.4-0.1-0.6-0.1c-0.1-0.2-0.1-0.4-0.2-0.6c-0.1-0.4-0.2-0.7-0.2-1
				c0,0,0-0.1,0-0.1c0-0.2,0-0.5,0-0.7c0.3-0.3,0.6-0.4,1-0.4C3.5,78.9,4.2,79.6,4.2,80.4z"/>
			<path class="st6" d="M10.9,87.1c0,0.8-0.7,1.5-1.5,1.5c-0.8,0-1.5-0.7-1.5-1.5c0-0.8,0.7-1.5,1.5-1.5
				C10.3,85.6,10.9,86.3,10.9,87.1z"/>
			<path class="st6" d="M22.3,90.7c0,0.8-0.7,1.5-1.5,1.5c-0.8,0-1.5-0.7-1.5-1.5c0-0.8,0.7-1.5,1.5-1.5
				C21.7,89.2,22.3,89.9,22.3,90.7z"/>
			<path class="st6" d="M29.1,88.6c-0.8,0-1.5-0.7-1.5-1.5c0-0.3,0.1-0.6,0.3-0.9c-3.9-1.1-7.3-2.2-10.3-3.5c0,0.1,0.1,0.3,0.1,0.4
				c0,0.8-0.7,1.5-1.5,1.5c-0.8,0-1.5-0.7-1.5-1.5c0-0.6,0.3-1,0.8-1.3c-5.1-2.2-8.7-4.4-11-6.1c0,0,0-0.1,0-0.1
				c2.3,1.6,6,3.8,11.1,6.1c0.7,0.3,1.3,0.6,2,0.9c3,1.2,6.5,2.4,10.4,3.5c0.1,0,0.2,0.1,0.4,0.1c0.3,0.1,0.6,0.2,1,0.3
				c0.4,0.1,0.9,0.2,1.3,0.3c3.6,0.9,7.5,1.7,11.9,2.3c-4.3-0.6-8.3-1.4-11.9-2.3c0,0,0,0.1,0,0.2C30.6,87.9,29.9,88.6,29.1,88.6z"
				/>
			<path class="st6" d="M31.5,97.2c0,0.4-0.2,0.8-0.5,1.1c-0.8-0.2-1.6-0.4-2.4-0.6c-0.1-0.1-0.1-0.3-0.1-0.5c0-0.8,0.7-1.5,1.5-1.5
				C30.9,95.8,31.5,96.4,31.5,97.2z"/>
			<path class="st6" d="M38.9,94c0,0.8-0.7,1.5-1.5,1.5c-0.8,0-1.5-0.7-1.5-1.5c0-0.8,0.7-1.5,1.5-1.5C38.2,92.5,38.9,93.2,38.9,94z
				"/>
			<path class="st6" d="M42.5,100.3c-0.7-0.1-1.4-0.2-2-0.3c-0.3,0-0.6-0.1-0.8-0.1c0.2-0.6,0.7-1,1.4-1
				C41.8,98.9,42.4,99.5,42.5,100.3z"/>
			<path class="st6" d="M53.1,100.1c0,0.4-0.2,0.8-0.4,1c-0.3,0-0.6,0-0.9,0c-0.1,0-0.1,0-0.2,0c-0.4,0-0.7,0-1.1-0.1
				c-0.2-0.3-0.3-0.6-0.3-0.9c0-0.8,0.7-1.5,1.5-1.5C52.4,98.6,53.1,99.2,53.1,100.1z"/>
			<path class="st6" d="M57.5,92.7c-0.2,0.1-0.4,0.1-0.6,0.1c-0.8,0-1.5-0.7-1.5-1.5c0-0.3,0.1-0.6,0.2-0.8c0.5,0,1,0.1,1.6,0.1
				C57.3,91.3,57.4,92,57.5,92.7z"/>
			<path class="st6" d="M139,82.5c-8.4,3.8-16.6,7-24.5,9.5c-0.9,0.3-1.9,0.6-2.8,0.9c-3.9,1.2-7.6,2.2-11.4,3.1
				c-0.9,0.2-1.9,0.5-2.8,0.7c-5.1,1.2-10.1,2.1-14.9,2.8c-0.2,0-0.4,0.1-0.6,0.1c-0.5,0.1-0.9,0.1-1.4,0.2
				c-2.2,0.3-4.4,0.5-6.5,0.7c-1-2.9-3.2-6.2-6.1-9.2c2.4,0.1,4.7,0.2,7.1,0.3c9.8,0.3,19.3,0,28.4-0.9c1-0.1,1.9-0.2,2.9-0.3
				c4.3-0.5,8.5-1.2,12.6-2c0.5-0.1,1-0.2,1.4-0.3c0.5-0.1,1-0.2,1.4-0.3C127.8,86.4,133.4,84.7,139,82.5z"/>
			<path class="st6" d="M52.7,101.1C52.7,101.1,52.7,101.1,52.7,101.1c-0.3,0-0.6,0-0.9,0C52.1,101.1,52.4,101.1,52.7,101.1z"/>
			<path class="st6" d="M59.6,101.2c-1.2-2.8-1.8-5.9-2.2-8.5c-0.2,0.1-0.4,0.1-0.6,0.1c-0.8,0-1.5-0.7-1.5-1.5
				c0-0.3,0.1-0.6,0.2-0.8c-2-0.2-4.1-0.3-6.2-0.5c-0.9-0.1-1.7-0.2-2.5-0.3c0,0,0,0.1,0,0.1c0,0.8-0.7,1.5-1.5,1.5S44,90.7,44,89.9
				c0-0.2,0-0.3,0.1-0.5c-0.2,0-0.4,0-0.6-0.1c-0.2,0-0.4,0-0.6-0.1c-0.2,0-0.4,0-0.5-0.1c-4.3-0.6-8.3-1.4-11.9-2.3
				c0,0,0,0.1,0,0.2c0,0.8-0.7,1.5-1.5,1.5c-0.8,0-1.5-0.7-1.5-1.5c0-0.3,0.1-0.6,0.3-0.9c-3.9-1.1-7.3-2.2-10.3-3.5
				c0,0.1,0.1,0.3,0.1,0.4c0,0.8-0.7,1.5-1.5,1.5c-0.8,0-1.5-0.7-1.5-1.5c0-0.6,0.3-1,0.8-1.3c-5.1-2.2-8.7-4.4-11-6.1
				c0,0,0-0.1,0-0.1c0,0-0.1-0.1-0.1-0.1c-1.8,0.8-2.5,2.1-2.6,3.6c0.3-0.3,0.6-0.4,1-0.4c0.8,0,1.5,0.7,1.5,1.5
				c0,0.8-0.7,1.5-1.5,1.5c-0.2,0-0.4-0.1-0.6-0.1C3,84.1,5,86.6,7.4,88.4c5.1,3.8,12.3,7,21.3,9.3c-0.1-0.1-0.1-0.3-0.1-0.5
				c0-0.8,0.7-1.5,1.5-1.5c0.8,0,1.5,0.7,1.5,1.5c0,0.4-0.2,0.8-0.5,1.1c2.7,0.6,5.5,1.1,8.5,1.6c0.2-0.6,0.7-1,1.4-1
				c0.8,0,1.4,0.6,1.5,1.4c2.6,0.3,5.2,0.5,8,0.7c-0.2-0.3-0.3-0.6-0.3-0.9c0-0.8,0.7-1.5,1.5-1.5c0.8,0,1.5,0.7,1.5,1.5
				c0,0.4-0.2,0.8-0.4,1C55,101.2,57.3,101.2,59.6,101.2z M9.4,88.6c-0.8,0-1.5-0.7-1.5-1.5c0-0.8,0.7-1.5,1.5-1.5
				c0.8,0,1.5,0.7,1.5,1.5C10.9,87.9,10.3,88.6,9.4,88.6z M20.8,92.2c-0.8,0-1.5-0.7-1.5-1.5c0-0.8,0.7-1.5,1.5-1.5
				c0.8,0,1.5,0.7,1.5,1.5C22.3,91.5,21.7,92.2,20.8,92.2z M37.4,95.5c-0.8,0-1.5-0.7-1.5-1.5c0-0.8,0.7-1.5,1.5-1.5
				c0.8,0,1.5,0.7,1.5,1.5C38.9,94.8,38.2,95.5,37.4,95.5z"/>
			<path class="st6" d="M4.2,80.4c0,0.8-0.7,1.5-1.5,1.5c-0.2,0-0.4-0.1-0.6-0.1c-0.1-0.2-0.1-0.4-0.2-0.6c-0.1-0.4-0.2-0.7-0.2-1
				c0,0,0-0.1,0-0.1c0-0.2,0-0.5,0-0.7c0.3-0.3,0.6-0.4,1-0.4C3.5,78.9,4.2,79.6,4.2,80.4z"/>
			<path class="st6" d="M10.9,87.1c0,0.8-0.7,1.5-1.5,1.5c-0.8,0-1.5-0.7-1.5-1.5c0-0.8,0.7-1.5,1.5-1.5
				C10.3,85.6,10.9,86.3,10.9,87.1z"/>
			<path class="st6" d="M22.3,90.7c0,0.8-0.7,1.5-1.5,1.5c-0.8,0-1.5-0.7-1.5-1.5c0-0.8,0.7-1.5,1.5-1.5
				C21.7,89.2,22.3,89.9,22.3,90.7z"/>
			<path class="st6" d="M29.1,88.6c-0.8,0-1.5-0.7-1.5-1.5c0-0.3,0.1-0.6,0.3-0.9c-3.9-1.1-7.3-2.2-10.3-3.5c0,0.1,0.1,0.3,0.1,0.4
				c0,0.8-0.7,1.5-1.5,1.5c-0.8,0-1.5-0.7-1.5-1.5c0-0.6,0.3-1,0.8-1.3c-5.1-2.2-8.7-4.4-11-6.1c0,0,0-0.1,0-0.1
				c2.3,1.6,6,3.8,11.1,6.1c0.7,0.3,1.3,0.6,2,0.9c3,1.2,6.5,2.4,10.4,3.5c0.1,0,0.2,0.1,0.4,0.1c0.3,0.1,0.6,0.2,1,0.3
				c0.4,0.1,0.9,0.2,1.3,0.3c3.6,0.9,7.5,1.7,11.9,2.3c-4.3-0.6-8.3-1.4-11.9-2.3c0,0,0,0.1,0,0.2C30.6,87.9,29.9,88.6,29.1,88.6z"
				/>
			<path class="st6" d="M31.5,97.2c0,0.4-0.2,0.8-0.5,1.1c-0.8-0.2-1.6-0.4-2.4-0.6c-0.1-0.1-0.1-0.3-0.1-0.5c0-0.8,0.7-1.5,1.5-1.5
				C30.9,95.8,31.5,96.4,31.5,97.2z"/>
			<path class="st6" d="M38.9,94c0,0.8-0.7,1.5-1.5,1.5c-0.8,0-1.5-0.7-1.5-1.5c0-0.8,0.7-1.5,1.5-1.5C38.2,92.5,38.9,93.2,38.9,94z
				"/>
			<path class="st6" d="M42.5,100.3c-0.7-0.1-1.4-0.2-2-0.3c-0.3,0-0.6-0.1-0.8-0.1c0.2-0.6,0.7-1,1.4-1
				C41.8,98.9,42.4,99.5,42.5,100.3z"/>
			<path class="st6" d="M53.1,100.1c0,0.4-0.2,0.8-0.4,1c-0.3,0-0.6,0-0.9,0c-0.1,0-0.1,0-0.2,0c-0.4,0-0.7,0-1.1-0.1
				c-0.2-0.3-0.3-0.6-0.3-0.9c0-0.8,0.7-1.5,1.5-1.5C52.4,98.6,53.1,99.2,53.1,100.1z"/>
			<path class="st6" d="M57.5,92.7c-0.2,0.1-0.4,0.1-0.6,0.1c-0.8,0-1.5-0.7-1.5-1.5c0-0.3,0.1-0.6,0.2-0.8c0.5,0,1,0.1,1.6,0.1
				C57.3,91.3,57.4,92,57.5,92.7z"/>
			<path class="st6" d="M139,82.5c-8.4,3.8-16.6,7-24.5,9.5c-0.9,0.3-1.9,0.6-2.8,0.9c-3.9,1.2-7.6,2.2-11.4,3.1
				c-0.9,0.2-1.9,0.5-2.8,0.7c-5.1,1.2-10.1,2.1-14.9,2.8c-0.2,0-0.4,0.1-0.6,0.1c-0.5,0.1-0.9,0.1-1.4,0.2
				c-2.2,0.3-4.4,0.5-6.5,0.7c-1-2.9-3.2-6.2-6.1-9.2c2.4,0.1,4.7,0.2,7.1,0.3c9.8,0.3,19.3,0,28.4-0.9c1-0.1,1.9-0.2,2.9-0.3
				c4.3-0.5,8.5-1.2,12.6-2c0.5-0.1,1-0.2,1.4-0.3c0.5-0.1,1-0.2,1.4-0.3C127.8,86.4,133.4,84.7,139,82.5z"/>
		</g>
		<path class="st6" d="M179.4,71.7c0.2,1.1-1.8,2.7-2.5,3.3c-4.1,2.9-10.5,3.8-15.4,4.2c-5.4,0.4-11.1,0.3-16.2-1.5
			c-0.1,0-0.3-0.1-0.4-0.1c-1.8-0.6-4.2-1.6-5.9-3c-1.3-1-2.1-2.3-2.1-3.9c0-0.9,0.2-1.9,0.5-2.9c0.4-1.3,1-2.6,1.7-3.8
			c0.9-1.6,1.9-3.1,2.7-4.4c2.9-4.1,7.1-6.3,11.7-8.3c2.5-1,7.7-2.5,10.3-1.1c3,1.6-1.1,5.3-2.5,7.1c-2.2,2.8-4.7,5.5-6.9,8.4
			c6.9-1.4,14.2,0.9,20.6,3.4C176.1,69.4,179.1,70.3,179.4,71.7z"/>
		<path class="st6" d="M57.5,92.7c-0.2,0.1-0.4,0.1-0.6,0.1c-0.8,0-1.5-0.7-1.5-1.5c0-0.3,0.1-0.6,0.2-0.8c0.5,0,1,0.1,1.6,0.1
			C57.3,91.3,57.4,92,57.5,92.7z"/>
		<path class="st6" d="M68.8,109c-4.7-0.2-7.5-3.7-9.2-7.8c-1.2-2.8-1.8-5.9-2.2-8.5c-0.1-0.7-0.2-1.4-0.2-2C57,88.4,57,87,57,87
			c0.2-1.7,3.7-1.1,3.7-1.1c2.7,1.4,5.2,3.3,7.3,5.4c2.9,2.9,5.1,6.2,6.1,9.2C75.9,105.3,74.6,109.2,68.8,109z"/>
	</g>
	<path class="st6" d="M27.4,58c0,0.7-0.5,1.2-1.2,1.2c-0.7,0-1.2-0.5-1.2-1.2c0-0.7,0.5-1.2,1.2-1.2C26.9,56.8,27.4,57.4,27.4,58z"
		/>
</g>
</svg>
