<?xml version="1.0" encoding="utf-8"?>
<!-- Generator: Adobe Illustrator 22.0.1, SVG Export Plug-In . SVG Version: 6.00 Build 0)  -->
<svg version="1.1" id="圖層_1" xmlns="http://www.w3.org/2000/svg" xmlns:xlink="http://www.w3.org/1999/xlink" x="0px" y="0px"
	 viewBox="0 0 183.8 114" style="enable-background:new 0 0 183.8 114;" xml:space="preserve">
<style type="text/css">
	.st0{fill:#CCCCCC;}
	.st1{fill:#3BB5EA;}
	.st2{fill:#70B279;}
	.st3{fill:#F5B19B;}
	.st4{fill:#C1272D;}
	.st5{fill:#CE424D;}
	.st6{fill:none;stroke:#000000;stroke-miterlimit:10;}
	.st7{stroke:#000000;stroke-miterlimit:10;}
</style>
<path class="st1" d="M183.7,73.1c-0.5-2.9-3.8-4.1-5.8-4.8c-0.2-0.1-0.3-0.1-0.4-0.2c-4.5-1.8-9.7-3.6-15.1-4c0.9-1,1.8-2.1,2.6-3.2
	c0.2-0.2,0.5-0.6,0.8-0.9c1.7-1.9,3.9-4.4,3.4-7.3c-0.3-1.4-1.2-2.6-2.6-3.4c-1.1-0.6-2.6-0.9-4.2-0.9c-3.1,0-6.6,1-8.7,1.9
	c-4.5,1.9-9.5,4.4-13,9.3c-0.4,0.6-0.9,1.3-1.3,1.9c-3.7-2.4-8.2-6.6-13.1-13.8c-1.3-1.9-2.5-3.7-3.8-5.7
	c-6.4-9.7-13.1-19.7-22.3-27.7C89.3,5.1,77,0.4,62.4,0c-0.5,0-0.9,0-1.4,0C44.3,0,27.6,8.1,16.3,21.6C4.1,36.2-0.8,55.5,2.4,76.1
	c-1.3,1.1-2.2,2.7-2.4,4.5c0,0.1,0,0.3,0,0.4c0,0,0,0.1,0,0.1c0,0,0,0.1,0,0.1c0,0.2,0,0.3,0,0.5c0,0.1,0,0.2,0,0.3
	c0,0.2,0,0.4,0.1,0.7c0,0.1,0,0.1,0,0.2c0.6,3.8,3.6,7.5,6.8,9.9c11.3,8.4,30.2,13.2,52.2,13.4c2.2,4.2,5.6,7.6,11,7.8
	c0.2,0,0.4,0,0.6,0c0,0,0,0,0,0c6.3,0,7.9-4,8.4-5.7c0.2-1,0.3-2.1,0.2-3.2c1-0.1,2-0.2,3.1-0.4c0.1,0,0.1,0,0.1,0
	c0.6-0.1,1.2-0.2,1.8-0.3l0.1,0c0,0,0.1,0,0.1,0c4.7-0.7,9.7-1.6,14.9-2.8c0,0,0.1,0,0.1,0c0.2,0,0.4-0.1,0.6-0.1c0,0,0,0,0,0
	c0.8-0.2,1.5-0.3,2.3-0.5c0,0,0.1,0,0.1,0c3.7-0.9,7.5-1.9,11.4-3.1c0,0,0,0,0,0c0.9-0.3,1.9-0.6,2.8-0.9c0,0,0,0,0,0
	c7.9-2.5,16.2-5.7,24.8-9.7c0,0,0,0,0,0c0,0,0,0,0,0c1.2-0.6,2-1.1,3-1.7c0.3-0.2,1.5-1.1,2.6-2.4c3.2,0.9,6.7,1.3,10.6,1.3
	c1.6,0,3.2-0.1,5.1-0.2c7.8-0.6,13.2-2.1,16.9-4.7C181.5,78.3,184.2,75.9,183.7,73.1z"/>
</svg>
